<?xml version="1.0" encoding="utf-8"?>
<!-- Generator: Adobe Illustrator 14.0.0, SVG Export Plug-In . SVG Version: 6.00 Build 43363)  -->
<!DOCTYPE svg PUBLIC "-//W3C//DTD SVG 1.1//EN" "http://www.w3.org/Graphics/SVG/1.1/DTD/svg11.dtd">
<svg version="1.1" id="Layer_1" xmlns="http://www.w3.org/2000/svg" xmlns:xlink="http://www.w3.org/1999/xlink" x="0px" y="0px"
	 width="800px" height="800px" viewBox="0 0 800 800" enable-background="new 0 0 800 800" xml:space="preserve">
<g>
	<path fill-rule="evenodd" clip-rule="evenodd" d="M366.63,7.282c130.954-10.241,231.318,37.311,298.542,96.586
		c68.291,60.215,123.037,146.129,131.71,263.42c9.53,128.882-35.829,223.311-96.587,293.524
		c-57.544,66.498-146.081,123.267-260.911,132.965c-127.079,10.732-230.713-38.264-297.288-95.333
		C74.245,640.278,18.773,551.534,7.878,437.533C-4.569,307.282,46.115,208.21,104.466,141.5
		c29.888-34.169,65.542-64.957,109.13-87.806C258.293,30.264,303.738,12.2,366.63,7.282z M117.01,132.72
		C56.313,195.731,4.432,291.418,10.388,417.463c5.553,117.525,57.515,202.964,124.184,267.184
		c65.307,62.908,159.365,111.293,284.744,105.368c117.465-5.552,204.525-53.842,269.692-121.675
		c59.945-62.401,112.393-160.676,106.621-284.745c-5.523-118.725-58.698-206.731-122.931-268.437
		C609.896,54.823,507.797,3.242,385.447,9.791C260.74,16.465,180.817,66.478,117.01,132.72z"/>
	<path fill-rule="evenodd" clip-rule="evenodd" d="M375.411,28.606c124.061-9.173,214.358,37.283,279.728,94.079
		c35.038,30.442,60.643,62.608,82.789,104.113c21.979,41.194,38.34,90.563,41.394,144.253
		c7.004,123.149-37.505,213.881-96.587,277.219C621.82,713.57,543.6,759.677,430.604,768.689
		c-119.058,9.496-211.95-37.372-277.217-94.078C85.917,615.992,38.036,536.992,29.203,426.244
		c-9.622-120.648,38.256-215.103,95.333-275.963C184.587,86.249,258.612,37.242,375.411,28.606z M242.447,76.272
		c-41.868,20.146-76.082,46.021-104.113,76.517C81.973,214.106,36.019,298.01,40.492,417.463
		c2.057,54.908,17.398,101.961,37.631,143c40.188,81.515,102.37,138.211,188.157,174.358
		c43.115,18.168,97.145,30.453,153.035,26.343c106.169-7.81,188.841-48.823,248.366-112.894
		c58.716-63.198,102.459-142.57,99.097-263.421c-1.589-57.11-15.937-102.977-36.376-144.253
		c-20.383-41.151-45.03-73.895-77.774-104.114c-57.671-53.225-152.716-106.12-264.673-97.841
		C331.208,42.837,284.745,55.919,242.447,76.272z"/>
	<path fill-rule="evenodd" clip-rule="evenodd" d="M385.447,48.676C496.249,41.542,587.384,87.37,645.103,141.5
		c56.82,53.287,109.516,131.879,112.895,239.587c3.609,115.077-36.429,195.598-94.078,258.402
		c-51.824,56.455-135.336,107.733-239.586,111.638c-111.596,4.18-197.835-35.386-259.657-92.822
		c-60.566-56.271-107.9-132.632-114.148-238.333c-6.934-117.275,41.054-199.308,94.078-258.401
		c39.968-44.543,93.042-80.493,163.069-100.351C333.349,53.939,358.97,50.38,385.447,48.676z M237.43,213
		c0.048,41.799,48.628,69.724,80.28,80.28c1.961,8.26,9.75,16.757,8.78,23.833c-13.878-7.343-29.738-10.838-43.903-17.561
		c-12.294-5.836-30.229-14.944-40.14-22.58c-20.893-16.096-41.773-65.216-30.105-102.858c4.05-13.065,15.407-20.681,17.561-31.359
		c-16.767,11.472-27.047,26.029-28.851,50.175c-4.042,54.107,25.549,89.536,57.701,109.131
		c29.929,18.24,73.862,26.413,92.824,53.938c-14.297-0.319-27.57,10.829-41.395,11.29c-10.629,0.354-20.913-5.435-31.359-8.781
		c5.446-15.843,2.812-30.94-6.272-38.886c-16.206-14.175-42.732-3.452-56.447,10.036c-20.85-3.083-40.89-6.923-55.193,3.763
		c20.908-2.519,34.96-1.389,50.175,7.526c-3.875,5.952-1.817,20.942-2.508,26.342c-36.896-19.935-95.699-13.869-117.912,16.307
		c19.463-8.606,42.847-16.915,66.481-15.053c17.687,1.393,46.23,10.595,56.447,17.562c6.704,4.57,10.602,12.896,16.307,17.561
		c8.033,6.568,15.831,7.317,22.579,13.798c-9.088,6.236-18.52,15.326-30.104,22.579c-10.208,6.392-25.343,13.688-38.886,13.799
		c-16.922,0.14-35.857-11.737-43.903-20.07c-2.078-2.151-5.779-11.239-7.526-6.272c3.895,15.161,23.166,31.434,37.631,35.124
		c48.156,12.28,81.367-24.156,102.859-40.141c7.529,2.925,17.988,2.917,26.342,5.017c-10.426,9.682-25.173,20.353-40.14,31.359
		c-23.794,17.502-46.438,36.657-86.552,30.105c-38.494-6.286-68.928-28.67-80.281-63.974c0.743,35.826,24.125,52.738,48.921,63.974
		c32.835,14.88,68.267,13.718,100.35-1.255c34.304-16.008,57.334-49.346,95.333-55.191c-3.504,15.311-5.576,32.055-6.271,50.176
		c-6.394,1.969-9.757,6.969-16.307,8.78c-16.94-42.481-81.174,0.774-60.21,45.156c-9.575,14.68-27.037,28.151-22.579,52.685
		c5.817-18.435,16.832-31.671,30.105-42.648c4.843,6.864,12.084,11.33,18.815,16.306c-20.405,15.992-40.886,45.137-42.648,79.025
		c-0.524,10.062-0.443,23.37,6.271,30.105c0.117-55.074,27.478-82.906,58.955-106.621c13.414,2.323,32.803-3.813,45.159-10.035
		c10.802,51.453-9.489,91.029-52.684,96.588c18.82,5.698,38.884-3.347,50.175-15.054c19.99-20.725,24.098-58.585,17.561-92.824
		c5.966-5.324,9.511-13.067,16.308-17.561c2.971,30.233,9.45,57.063,6.271,82.788c-2.101,17.008-11.444,29.258-20.07,40.142
		c-13.832,17.447-31.827,34.672-57.702,37.632c-11.629,1.328-23.487-2.658-30.105,1.254c9.297,2.464,11.919,5.463,18.816,6.271
		c25.304,2.968,39.295-7.782,51.43-16.308c29.081-20.432,51.479-49.225,51.43-95.333c-0.041-37.271-14.542-76.256,0-101.604
		c11.259,10.481,24.281,19.203,36.377,28.852c-0.546,5.726,1.269,13.811-1.255,17.56c-22.321-1.205-32.458,13.781-32.614,28.851
		c-0.259,25.07,24.075,36.155,41.395,42.649c4.551,23.464,14.074,41.956,32.613,51.429c-9.897-14.354-18.571-29.93-21.322-51.429
		c10.695-0.605,18.382-10.867,25.086-11.289c0.882,39.334,20.688,65.103,43.904,81.534c8.21,5.812,18.268,14.951,28.851,11.289
		c-15.839-9.12-32.164-23.508-42.649-42.649c-9.732-17.763-19.159-44.289-17.561-67.736c0.343-5.014,3.059-10.022,3.762-15.052
		c1.381-9.867,0.089-19.17,0-28.851c21.15,10.433,49.229,19.596,62.72,40.14c10.178,15.5,12.57,40.952,5.017,60.211
		c9.643-7.652,13.815-21.754,13.799-36.377c-0.051-43.341-47.43-69.852-84.042-80.279c-4.702-7.427-8.862-15.391-11.291-25.089
		c16.072,4.118,31.016,11.72,46.413,18.815c14.665,6.76,31.541,13.054,43.902,22.579c15.42,11.88,27.15,37.087,31.359,58.956
		c2.614,13.576,2.508,31.768-1.253,43.903c-4.047,13.052-15.445,20.739-17.563,31.358c16.768-11.473,27.048-26.029,28.851-50.174
		c4.043-54.109-25.548-89.537-57.7-109.132c-29.928-18.24-73.862-26.411-92.824-53.938c24.396-4.684,44.269-17.078,67.736-5.017
		c-7.807,14.031-3.748,31.219,5.018,38.886c16.077,14.062,43.403,3.893,56.447-10.036c19.828,5.905,46.345,10.101,61.464-1.254
		c-23.033,3.4-38.158-0.589-56.446-8.781c4.547-5.905,0.567-20.338,3.764-27.596c36.324,22.229,99.716,18.174,122.928-13.799
		c-21.485,8.84-41.287,17.039-66.48,15.052c-20.926-1.647-49.674-12.443-61.465-20.068c-7.749-5.011-12.282-13.664-18.816-18.816
		c-2.984-2.354-15.063-6.124-15.052-10.035c0.003-1.401,11.419-8.463,15.052-11.29c6.608-5.139,11.501-9.066,15.053-11.289
		c9.063-5.676,25.572-13.69,38.887-13.799c18.379-0.151,35.93,11.811,43.902,20.07c2.124,2.2,5.652,11.175,7.526,6.271
		c-10.401-25.353-33.915-40.555-67.737-36.377c-29.975,3.703-54.158,26.282-71.499,40.141c-8.367-1.668-15.558-4.513-25.089-5.018
		c10.056-9.111,22.929-20.779,37.633-31.359c23.477-16.892,47.669-35.2,86.552-28.85c38.454,6.278,68.951,28.672,80.28,63.972
		c-0.733-35.813-24.127-52.738-48.921-63.972c-32.835-14.879-68.266-13.719-100.349,1.254
		c-34.306,16.009-57.335,49.346-95.335,55.192c3.505-15.311,5.578-32.054,6.273-50.175c5.539-1.567,8.41-5.805,13.797-7.526
		c19.417,33.695,74.484-2.469,60.211-43.903c10.771-15.156,29.316-29.217,25.087-55.192c-5.965,19.123-17.722,32.453-31.358,43.903
		c-3.912-8.213-12.11-12.141-17.562-18.816c21.176-14.397,40.906-44.236,42.649-77.771c0.499-9.586,0.506-23.415-6.271-30.105
		c-0.314,53.206-25.426,81.615-56.447,104.114c-17.922-4.03-35.858,2.54-48.921,7.526c-7.869-51.714,12.538-85.041,53.939-91.569
		c-18.806-5.774-39.036,3.504-50.177,15.053c-18.9,19.595-23.179,53.81-18.815,86.552c-5.081,5.791-10.109,11.633-16.307,16.307
		c-2.394-27.819-7.819-52.585-5.018-75.263c2.099-16.997,11.509-29.34,20.069-40.141c13.856-17.477,32.071-34.7,57.702-37.631
		c12.071-1.38,23.046,2.699,30.104-1.254c-13.228-5.724-28.126-8.771-43.901-5.018c-11.57,2.752-28.254,13.694-38.886,22.579
		c-30.847,25.774-40.601,63.212-37.632,115.403c0.847,14.921,7.251,31.855,5.017,45.157c-1.208,7.196-10.427,16.172-10.035,25.088
		c-10.669-8.564-21.853-16.615-32.613-25.088c0-7.108,0-14.216,0-21.325c18.15-0.905,27.73-16.805,26.341-32.614
		c-1.698-19.337-22.207-30.354-33.868-37.631c-5.78-21.398-14.277-40.08-32.614-48.921c8.854,13.725,18.123,27.035,20.07,47.667
		c-11.006-0.553-16.335,4.572-23.833,7.526c-3.672-34.524-21.767-58.341-43.903-74.009c-8.397-5.942-18.232-14.907-28.851-11.289
		c15.522,9.698,32.015,22.677,42.649,41.394c5.993,10.55,18.423,41.683,16.307,56.448c-0.696,4.854-5.857,7.818-7.526,12.543
		c-4.688,13.269-0.993,26.44-2.509,40.14c-19.382-8.59-43.062-17.906-55.192-36.376c-10.323-15.717-12.492-40.994-5.018-60.21
		C241.728,183.071,237.415,200.219,237.43,213z"/>
	<path fill-rule="evenodd" clip-rule="evenodd" d="M362.868,219.271c3.569,9.927,3.448,29.846,1.254,41.395
		c-6.676-1.267-8.222-7.667-12.544-11.289c-7.062,10.085,4.819,20.438,13.799,22.578c0.351,6.147,1.475,8.72,1.253,17.562
		c-7.779-3.092-17.479-4.263-25.087-7.526c-4.327-20.943-2.588-27.451-5.018-50.175
		C342.369,224.697,349.092,218.457,362.868,219.271z"/>
	<path fill-rule="evenodd" clip-rule="evenodd" d="M376.666,224.289c16.181,1.415,18.859,36.284,1.254,33.868
		C378.241,241.364,376.601,239.694,376.666,224.289z"/>
	<path fill-rule="evenodd" clip-rule="evenodd" d="M493.324,250.631c-6.526,6.436-14.5,11.425-22.58,16.306
		c0.028-2.955-2.161-3.692-1.255-7.526C478.326,257.376,482.654,250.833,493.324,250.631z"/>
	<path fill-rule="evenodd" clip-rule="evenodd" d="M538.48,268.192c-2.553,8.317-11.719,10.023-17.561,15.053
		c-12.474-3.642-27.118,0.138-25.089,15.053c-3.748,3.777-9.685,5.366-12.542,10.035c-3.665-6.789-4.809-16.1-7.528-23.833
		c6.357-8.723,27.69-24.788,38.887-31.36C520.992,249.415,535.112,260.156,538.48,268.192z"/>
	<path fill-rule="evenodd" clip-rule="evenodd" d="M453.184,271.955c2.511,1.67,2.794,5.568,3.762,8.781
		c-5.848,5.858-10.625,12.789-15.052,20.069C440.554,291.089,448.637,279.965,453.184,271.955z"/>
	<path fill-rule="evenodd" clip-rule="evenodd" d="M543.498,284.5c3.554,20.011-19.096,36.71-31.359,21.324
		c6.874-10.269,21.137-13.149,28.851-22.579C542.447,283.042,543.221,283.522,543.498,284.5z"/>
	<path fill-rule="evenodd" clip-rule="evenodd" d="M461.964,298.298c3.145,4.799,3.551,12.338,3.763,20.07
		c-3.388,6.229-11.034,8.199-16.308,12.543C444.001,315.446,456.487,307.046,461.964,298.298z"/>
	<path fill-rule="evenodd" clip-rule="evenodd" d="M347.815,299.552c6.316,3.3,14,5.233,20.069,8.78
		c2.194,5.333,0.935,14.119,1.254,21.325C356.502,325.15,351.233,313.277,347.815,299.552z"/>
	<path fill-rule="evenodd" clip-rule="evenodd" d="M381.684,315.859c11.746,4.979,19.929,13.521,27.596,22.579
		c-0.685,4.751-3.034,7.836-2.508,13.798c-10.216-2.746-15.08-10.845-22.579-16.308
		C384.331,328.264,382.901,322.167,381.684,315.859z"/>
	<path fill-rule="evenodd" clip-rule="evenodd" d="M268.789,352.236c-9.61-1.8-21.669-11.69-32.613-16.308
		C246.396,320.986,277.815,329.791,268.789,352.236z"/>
	<path fill-rule="evenodd" clip-rule="evenodd" d="M465.727,335.929c3.704,12.917-1.533,27.727-5.018,37.632
		c-7.345-0.596-7.794,2.368-12.543,0C445.983,352.98,454.572,343.172,465.727,335.929z"/>
	<path fill-rule="evenodd" clip-rule="evenodd" d="M227.395,345.964c13.246,3.896,24.827,9.458,32.614,18.815
		c-3.517,1.502-8.656,1.38-13.798,1.255c1.898,10.696,17.737,9.957,23.833,3.763c7.006,2.61,11.896,7.337,18.815,10.035
		c-6.064,7.734-12.935,14.661-21.324,20.07c-5.003-3.056-10.731-6.502-17.562-10.035c-5.943-3.074-14.761-4.795-18.816-8.78
		C223.593,373.652,223.28,359.327,227.395,345.964z"/>
	<path fill-rule="evenodd" clip-rule="evenodd" d="M371.649,378.577c-10.552,5.607-29.928,1.5-40.141-1.254
		C340.323,371.209,366.056,366.341,371.649,378.577z"/>
	<path fill-rule="evenodd" clip-rule="evenodd" d="M320.219,381.087c12.073,0.47,19.865,5.223,31.359,6.272
		c-3.14,3.549-10.265,3.115-15.053,5.017C333.257,386.445,323.8,386.705,320.219,381.087z"/>
	<path fill-rule="evenodd" clip-rule="evenodd" d="M320.219,399.902c-10.113,1.974-20.936,8.646-32.614,5.018
		c4.678-6.193,11.948-9.795,17.562-15.053C311.37,392.026,317.192,394.566,320.219,399.902z"/>
	<path fill-rule="evenodd" clip-rule="evenodd" d="M527.191,398.648c-4.678,6.193-11.948,9.795-17.562,15.052
		c-7.602-2.852-14.447-6.458-18.815-12.543C499.086,395.466,516.275,394.69,527.191,398.648z"/>
	<path fill-rule="evenodd" clip-rule="evenodd" d="M582.384,455.094c-13.849-2.873-22.059-11.392-32.614-17.561
		c0.646-4.371,8.196-1.839,12.545-2.51c-0.945-10.519-17.639-10.218-22.579-3.762c-4.654-2.453-8.787-5.43-13.798-7.525
		c4.743-8.219,13.806-12.119,18.814-20.071C565.548,411.875,591.83,420.77,582.384,455.094z"/>
	<path fill-rule="evenodd" clip-rule="evenodd" d="M494.578,422.481c-12.826-0.554-20.893-5.869-33.869-6.271
		c4.368-3.16,11.176-3.877,17.561-5.019C481.54,417.121,490.997,416.862,494.578,422.481z"/>
	<path fill-rule="evenodd" clip-rule="evenodd" d="M483.289,426.244c-8.044,6.865-39.396,10.558-38.887-2.508
		C456.789,420.572,473.031,423.217,483.289,426.244z"/>
	<path fill-rule="evenodd" clip-rule="evenodd" d="M365.377,428.753c5.23,18.708-5.117,32.442-16.308,38.885
		c-3.705-12.916,1.533-27.726,5.018-37.63C360.863,429.914,360.735,429.441,365.377,428.753z"/>
	<path fill-rule="evenodd" clip-rule="evenodd" d="M540.989,447.568c12.001,3.889,19.339,12.439,31.359,16.308
		C564.602,481.135,529.077,471.606,540.989,447.568z"/>
	<path fill-rule="evenodd" clip-rule="evenodd" d="M405.517,448.823c9.926,4.709,17.27,12,25.087,18.814
		c-0.139,7.665,1.293,13.761,2.51,20.07c-13.479-5.754-22.225-16.243-31.36-26.342C401.601,455.777,404.848,453.59,405.517,448.823z
		"/>
	<path fill-rule="evenodd" clip-rule="evenodd" d="M365.377,472.656c5.418,15.466-7.068,23.864-12.544,32.613
		c-3.378-5.402-3.771-13.79-3.763-22.577C355.41,480.25,359.643,475.704,365.377,472.656z"/>
	<path fill-rule="evenodd" clip-rule="evenodd" d="M445.658,473.911c10.803,6.339,18.457,15.827,21.322,30.104
		c-6.316-3.3-14-5.232-20.07-8.781C444.717,489.902,445.977,481.116,445.658,473.911z"/>
	<path fill-rule="evenodd" clip-rule="evenodd" d="M301.404,498.998c-8.426,9.972-22.48,14.314-31.36,23.832
		C255.26,503.173,289.645,473.529,301.404,498.998z"/>
	<path fill-rule="evenodd" clip-rule="evenodd" d="M331.508,495.234c3.665,6.789,4.807,16.101,7.527,23.834
		c-12.489,14.089-47.656,48.321-65.228,15.052c7.121-5.005,14.264-9.986,21.325-15.052c11.033,0.162,18.188-3.555,20.07-12.545
		C321.464,503.589,327.331,500.258,331.508,495.234z"/>
	<path fill-rule="evenodd" clip-rule="evenodd" d="M448.166,514.051c7.779,3.091,17.479,4.263,25.087,7.526
		c6.388,25.545,7.655,53.87-22.579,58.956c-2.414-10.548-0.783-25.141-1.255-37.633c3.327,1.274,3.399,5.801,6.273,7.528
		C464.161,535.079,442.307,532.481,448.166,514.051z"/>
	<path fill-rule="evenodd" clip-rule="evenodd" d="M361.613,517.814c3.402,1.89-1.996,5.411-2.508,7.525
		C355.582,523.329,361.824,520.652,361.613,517.814z"/>
	<path fill-rule="evenodd" clip-rule="evenodd" d="M435.622,539.139c2.377,16.168,1.454,24.613,2.508,38.887
		C415.104,578.439,407.9,538.81,435.622,539.139z"/>
	<path fill-rule="evenodd" clip-rule="evenodd" d="M344.052,536.629c-1.364,4.071-6.137,4.734-8.78,7.526
		C333.58,541.974,340.659,537.891,344.052,536.629z"/>
</g>
</svg>
