<?xml version="1.0"?>
<svg width="1200" height="1200" xmlns="http://www.w3.org/2000/svg" xmlns:svg="http://www.w3.org/2000/svg" enable-background="new 0 0 1200 1200" version="1.1" xml:space="preserve">
 <g class="layer">
  <title>Layer 1</title>
  <path d="m599.8,50.52l0.01,0.49c-1.32,1.7 -2.61,3.53 -5.12,3.85c-4.45,0.59 -8.59,0.18 -10.95,-0.65c-1.28,4.59 -2.8,6.29 -4.27,8.63l20.52,0l0.01,-0.14l0,0.14l20.52,0c-1.47,-2.34 -2.99,-4.04 -4.26,-8.63c-2.37,0.83 -6.51,1.24 -10.96,0.65c-2.51,-0.32 -3.8,-2.15 -5.12,-3.85l0.01,-0.49c-0.06,0.09 -0.13,0.17 -0.19,0.25c-0.07,-0.08 -0.13,-0.16 -0.2,-0.25zm-14.78,19.48c5.23,4.19 8.83,9.1 5.97,16.78l18.01,0c-2.86,-7.69 0.74,-12.59 5.97,-16.78l-14.97,0l-14.98,0zm-0.82,24.47c0.31,3.93 -1.23,4.59 -2.33,6.03c6.64,1.75 9.73,4.18 10.23,10.72c-5.78,3.58 -5.68,10.39 -0.09,14.55c-5.78,3.58 -5.68,10.39 -0.07,14.47c-5.77,3.49 -5.68,10.3 -0.08,14.47c-5.78,3.57 -5.69,10.39 -0.1,14.55c-5.78,3.57 -5.68,10.39 -0.09,14.55c-5.78,3.58 -5.68,10.39 -0.09,14.55c-5.78,3.58 -5.69,10.39 -0.09,14.56c-5.78,3.57 -5.69,10.38 -0.1,14.55c-5.78,3.57 -5.68,10.39 -0.09,14.55c-5.78,3.57 -5.68,10.39 -0.09,14.55c-5.78,3.58 -5.68,10.32 -0.08,14.48c-3.05,2.98 -3.3,4.32 -3.39,7.49l12.26,0.06l12.25,-0.06c-0.09,-3.17 -0.34,-4.51 -3.39,-7.49c5.6,-4.16 5.7,-10.9 -0.08,-14.48c5.59,-4.16 5.69,-10.98 -0.09,-14.55c5.59,-4.16 5.69,-10.98 -0.09,-14.55c5.59,-4.16 5.68,-10.98 -0.1,-14.55c5.6,-4.17 5.69,-10.98 -0.09,-14.56c5.59,-4.16 5.69,-10.97 -0.09,-14.55c5.59,-4.16 5.69,-10.98 -0.09,-14.55c5.59,-4.16 5.68,-10.98 -0.1,-14.55c5.6,-4.16 5.69,-10.98 -0.08,-14.47c5.61,-4.08 5.71,-10.89 -0.07,-14.47c5.59,-4.16 5.69,-10.97 -0.09,-14.55c0.5,-6.54 3.59,-8.97 10.23,-10.72c-1.1,-1.44 -2.64,-2.1 -2.33,-6.03l-15.79,0l-15.8,0zm-8.55,110.15c-84.49,5.27 -164.86,38.19 -228.42,93.57l12.46,12.97c60.19,-52.19 136.11,-83.31 215.97,-88.54l-0.01,-18zm48.69,0l0,18c79.86,5.23 155.78,36.35 215.96,88.54l12.45,-12.97c-63.56,-55.38 -143.93,-88.3 -228.42,-93.57l0.01,0zm-360.5,37.12c-0.5,0 -0.96,0.16 -1.34,0.43c-0.27,0.37 -0.43,0.83 -0.43,1.33l0.04,19.58c0,1.24 1,2.24 2.25,2.24l19.57,-0.03c0.47,0 0.9,-0.15 1.26,-0.39c0.25,-0.36 0.39,-0.8 0.39,-1.26l0.07,-19.58c0,-1.24 -0.99,-2.25 -2.24,-2.25l-19.57,-0.07zm672.32,0l-19.58,0.07c-1.24,0 -2.25,1.01 -2.24,2.25l0.07,19.58c0,0.46 0.14,0.9 0.39,1.26c0.36,0.24 0.79,0.39 1.26,0.39l19.58,0.03c1.24,0 2.25,-1 2.25,-2.24l0.03,-19.58c0,-0.5 -0.16,-0.96 -0.43,-1.33c-0.37,-0.27 -0.83,-0.43 -1.33,-0.43zm-643.42,19.59l-0.46,10.67l-10.67,0.44l96,95.47c1.87,-2.37 3.32,-4.08 4.82,-5.62c1.54,-1.5 3.25,-2.94 5.62,-4.81l-95.31,-96.15zm614.52,0l-95.32,96.15c2.37,1.87 4.08,3.31 5.63,4.81c1.49,1.54 2.94,3.25 4.81,5.61l96,-95.46l-10.67,-0.44l-0.45,-10.67zm-320.35,25.98c-0.65,0.7 -1.28,1.7 -2.77,2.04c3.57,1.06 6.48,7.48 3.67,11.25c-3.4,4.57 -10.11,1.03 -14.59,-1.79c-5.51,-3.47 -8.24,-10.72 -12.87,-9.85c2.43,2.76 2.57,7.9 -0.07,12.58c-0.8,1.2 -2.89,1.32 -7.99,1.28c-4.36,-0.04 -7.83,-0.26 -14.14,1.34c-11.11,2.84 -16.84,10.74 -25.2,16.44c-1.07,-1.17 0.49,-3.56 0.29,-7.11c-0.32,-5.68 -5.07,-7.01 -10.4,-6.16c-4.79,0.75 -9.64,3.29 -9.18,10.49c0.78,12.2 8.51,16.07 12.41,16.2c7.24,0.23 18.51,-6.45 25.23,-12.91c3.15,-3.03 6.38,-5.89 11.9,-5.68c-2.63,7.67 -0.55,12.38 3.63,15.62c-0.54,-0.95 11.32,-17.38 24.98,-11.57c18.23,7.77 9.34,26.56 9.31,26.56c11.27,9.01 15.33,20.23 18.69,31.78c0.13,0.45 0.2,0.83 0.23,1.2c0.03,-0.63 0.14,-1.2 0.14,-1.2c3.36,-11.55 7.42,-22.77 18.69,-31.78c-0.03,0 -8.92,-18.79 9.31,-26.56c13.66,-5.81 25.51,10.62 24.98,11.57c4.17,-3.24 6.26,-7.94 3.63,-15.62c5.52,-0.21 8.75,2.65 11.9,5.68c6.72,6.46 17.99,13.14 25.23,12.91c3.9,-0.13 11.63,-4 12.41,-16.2c0.46,-7.2 -4.39,-9.74 -9.18,-10.49c-5.33,-0.85 -10.09,0.48 -10.4,6.16c-0.2,3.55 1.36,5.94 0.29,7.11c-8.36,-5.7 -14.09,-13.6 -25.2,-16.44c-6.32,-1.6 -9.78,-1.38 -14.14,-1.34c-5.1,0.04 -7.19,-0.08 -7.99,-1.28c-2.64,-4.68 -2.51,-9.82 -0.07,-12.58c-4.63,-0.87 -7.36,6.38 -12.88,9.85c-4.47,2.82 -11.18,6.36 -14.59,1.79c-2.8,-3.77 0.11,-10.19 3.68,-11.25c-1.49,-0.34 -2.12,-1.34 -2.77,-2.04l-11.21,0l-14.96,0zm-128.04,36.56c-18.5,6.56 -28.19,14.06 -52.23,36.86c-7.82,-0.42 -14.72,1.83 -19.54,6.24c-4.42,4.81 -6.68,11.72 -6.27,19.54c-22.85,24 -30.36,33.67 -36.95,52.16c5.99,3.53 7.92,4.36 13.16,5.28c4.57,-10.55 6.04,-21.83 33.44,-46.45c11.83,-1.21 21.32,1.94 32.04,4.95c-2.99,-10.73 -6.13,-20.22 -4.9,-32.05c24.67,-27.36 35.95,-28.81 46.5,-33.36c-0.91,-5.24 -1.73,-7.18 -5.25,-13.17zm282.25,0c-3.53,5.99 -4.35,7.93 -5.26,13.17c10.55,4.55 21.83,6 46.5,33.36c1.23,11.83 -1.91,21.33 -4.9,32.05c10.72,-3.01 20.21,-6.16 32.04,-4.95c27.4,24.62 28.88,35.9 33.44,46.45c5.24,-0.92 7.17,-1.75 13.16,-5.28c-6.59,-18.49 -14.1,-28.16 -36.95,-52.16c0.42,-7.82 -1.85,-14.73 -6.27,-19.54c-4.81,-4.41 -11.72,-6.66 -19.54,-6.24c-24.04,-22.8 -33.72,-30.3 -52.22,-36.86zm-177.67,0.74c-1.34,0 -2.71,0.05 -4.07,0.08c6.4,4.4 5.78,8.72 4.59,12.67c-2.23,7.4 -8.91,9.28 -13.93,12.83c4.77,4.58 11.57,5.74 12.34,17.14c0.51,7.52 -4.02,11.81 -7.58,16.75c7.64,4.87 16.67,8.76 16.77,20.88c0.09,10.49 -7.72,14.68 -14.57,19.35c8.28,3.16 12.99,9.06 13.28,19.85c0.25,9.34 -4.1,14.58 -8.49,20l20.79,10.07c3.71,-1.12 7.52,-2.12 12.81,-1.35l0,-90.09c-4.54,-14.57 -11.51,-26.96 -24.88,-33.6c2.67,-3.63 5.92,-8.42 5.06,-15.08c-1.07,-8.35 -6.32,-9.47 -12.12,-9.5zm73.1,0c-5.81,0.03 -11.06,1.15 -12.13,9.5c-0.86,6.66 2.39,11.45 5.06,15.08c-13.36,6.64 -20.34,19.03 -24.88,33.6l0,90.09c5.29,-0.77 9.1,0.23 12.81,1.35l20.79,-10.07c-4.39,-5.42 -8.74,-10.65 -8.49,-20c0.29,-10.79 5,-16.69 13.28,-19.85c-6.85,-4.67 -14.66,-8.86 -14.57,-19.34c0.1,-12.13 9.13,-16.02 16.77,-20.89c-3.56,-4.94 -8.09,-9.23 -7.58,-16.75c0.77,-11.4 7.57,-12.56 12.35,-17.14c-5.03,-3.55 -11.71,-5.43 -13.93,-12.82c-1.2,-3.96 -1.81,-8.28 4.58,-12.68c-1.36,-0.03 -2.72,-0.08 -4.06,-0.07l0,-0.01zm-318.93,2.35c-39.35,42.61 -68.04,93.27 -84.38,147.89l17.39,4.54c15.5,-51.5 42.55,-99.3 79.58,-139.6l-12.59,-12.83zm564.76,0l-12.6,12.83c37.03,40.3 64.08,88.09 79.58,139.6l17.39,-4.54c-16.34,-54.62 -45.03,-105.28 -84.38,-147.89l0.01,0zm-453.47,43.43l-4.17,3.83c3.33,9.56 6.13,20.17 7.55,31.88c8.87,-7.43 15.9,-8.73 23.61,-11.37l-26.99,-24.34zm342.18,0l-27,24.34c7.71,2.64 14.74,3.94 23.61,11.38c1.42,-11.72 4.22,-22.33 7.55,-31.89l-4.16,-3.83zm-376.79,34.23l-3.85,4.16l24.31,27.03c2.65,-7.7 3.96,-14.73 11.41,-23.59c-11.72,-1.44 -22.33,-4.25 -31.88,-7.6l0.01,0zm411.4,0c-9.55,3.35 -20.16,6.16 -31.88,7.6c7.45,8.86 8.76,15.89 11.41,23.59l24.31,-27.03l-3.84,-4.16zm-346.47,1.9c-20.98,0 -38.13,17.15 -38.13,38.12c0,4.02 0.64,7.91 1.81,11.55l-41.03,35.83c-4.42,-1.81 -9.25,-2.81 -14.31,-2.81c-20.97,0 -38.12,17.15 -38.12,38.12c0,14.75 8.48,27.59 20.8,33.93l0,41.49c-12.32,6.33 -20.8,19.18 -20.8,33.93c0,20.97 17.15,38.12 38.12,38.12c5.06,0 9.89,-1 14.31,-2.81l41.03,35.82c-1.17,3.65 -1.81,7.53 -1.81,11.56c0,20.97 17.15,38.12 38.13,38.12c19.66,0 35.92,-15.08 37.88,-34.24l89.23,-42.34c2.15,1.72 10.33,2.92 13.54,2.88l0,0.01c0.03,0 0.08,0 0.11,0c0.04,0 0.09,0 0.12,0l0,-0.01c3.21,0.04 11.39,-1.16 13.54,-2.88l89.22,42.34c1.96,19.16 18.23,34.24 37.89,34.24c20.98,0 38.12,-17.15 38.12,-38.12c0,-4.03 -0.63,-7.91 -1.8,-11.56l41.02,-35.82c4.43,1.81 9.26,2.81 14.32,2.81c20.97,0 38.12,-17.15 38.12,-38.12c0,-14.75 -8.48,-27.6 -20.81,-33.93l0,-41.49c12.33,-6.34 20.81,-19.18 20.81,-33.93c0,-20.97 -17.15,-38.12 -38.12,-38.12c-5.06,0 -9.89,1 -14.32,2.81l-41.02,-35.83c1.17,-3.64 1.8,-7.53 1.8,-11.55c0,-20.97 -17.14,-38.12 -38.12,-38.12c-19.66,0 -35.93,15.08 -37.89,34.24l-89.22,42.34c-4.47,-1.58 -7.15,-2.05 -13.58,-2.12l0,-0.01c-0.03,0 -0.05,0 -0.08,0c-0.02,0 -0.05,0 -0.07,0l0,0.01c-6.43,0.07 -9.11,0.54 -13.58,2.12l-89.23,-42.34c-1.96,-19.16 -18.22,-34.24 -37.89,-34.24l0.01,0zm0,13.47c13.69,0 24.64,10.95 24.65,24.64l0,0.01c0,13.7 -10.96,24.65 -24.65,24.65c-13.7,0 -24.65,-10.96 -24.65,-24.65c0,-13.69 10.95,-24.65 24.65,-24.65zm281.54,0c13.69,0 24.65,10.96 24.65,24.65s-10.96,24.65 -24.65,24.65c-13.7,0 -24.65,-10.96 -24.65,-24.65l0,-0.01c0.01,-13.69 10.95,-24.64 24.65,-24.64zm-439.27,9.12c-12.35,15.26 -16.69,26.71 -25.27,58.72c-6.89,3.72 -11.6,9.25 -13.4,15.53c-1.26,6.41 0.42,13.48 4.86,19.93c-6.94,32.41 -8.29,44.57 -4.25,63.79c6.95,-0.12 9.03,-0.42 13.98,-2.38c-1.62,-11.38 -6.26,-21.76 4.24,-57.07c9.46,-7.22 19.19,-9.49 29.9,-12.53c-8.15,-7.58 -15.78,-14.03 -20.92,-24.77c6.74,-36.21 15.6,-43.35 22.22,-52.74c-3.51,-3.99 -5.23,-5.21 -11.36,-8.48zm597.01,0c-6.14,3.27 -7.86,4.49 -11.37,8.48c6.62,9.39 15.48,16.53 22.22,52.74c-5.14,10.74 -12.77,17.19 -20.92,24.77c10.71,3.04 20.44,5.31 29.9,12.53c10.5,35.31 5.86,45.69 4.25,57.07c4.94,1.96 7.02,2.26 13.97,2.38c4.04,-19.22 2.69,-31.38 -4.25,-63.79c4.44,-6.45 6.12,-13.52 4.86,-19.93c-1.8,-6.28 -6.51,-11.81 -13.4,-15.53c-8.58,-32.01 -12.92,-43.46 -25.26,-58.72zm-788.22,21.38c-0.44,-0.02 -0.88,0.09 -1.28,0.33l-16.72,10.17c-0.43,0.26 -0.74,0.64 -0.91,1.06c-0.04,0.46 0.06,0.94 0.32,1.37l10.26,16.67c0.65,1.06 2.03,1.39 3.09,0.73l16.67,-10.25c0.4,-0.25 0.7,-0.6 0.88,-0.99c0.02,-0.44 -0.08,-0.88 -0.33,-1.28l-10.17,-16.73c-0.41,-0.66 -1.1,-1.04 -1.81,-1.08zm979.43,0c-0.72,0.04 -1.41,0.42 -1.82,1.08l-10.17,16.73c-0.24,0.4 -0.35,0.84 -0.33,1.28c0.18,0.39 0.48,0.74 0.88,0.99l16.67,10.26c1.06,0.65 2.44,0.32 3.09,-0.74l10.26,-16.67c0.26,-0.43 0.36,-0.9 0.33,-1.36c-0.18,-0.43 -0.49,-0.81 -0.92,-1.07l-16.72,-10.17c-0.4,-0.24 -0.84,-0.35 -1.27,-0.33zm-593.94,4.88c34.72,15.06 69.44,30.11 104.16,45.17c0.04,0.11 0.14,0.01 0.23,-0.05c34.69,-15.04 69.38,-30.08 104.06,-45.12c1.13,3.78 2.85,7.39 5.06,10.65c0.07,0.24 0.55,0.59 0.4,0.75c-30.2,13.28 -60.4,26.56 -90.6,39.83c-3.23,-2.53 -7.07,-4.23 -11.08,-5.1c-2.64,-0.58 -5.37,-0.83 -8.07,-0.9c-3.27,0.1 -6.58,0.46 -9.75,1.36c-3.35,0.94 -6.52,2.5 -9.26,4.64l-90.69,-39.87c1.69,-2.42 3.16,-5.02 4.27,-7.77c0.48,-1.17 0.91,-2.38 1.27,-3.59zm-368.61,7.22l5.18,9.34l-8.87,5.95l131.74,31.23c0.36,-2.99 0.7,-5.2 1.18,-7.3c0.53,-2.08 1.24,-4.2 2.28,-7.04l-131.51,-32.18zm945.67,0l-131.51,32.19c1.04,2.83 1.74,4.95 2.28,7.03c0.47,2.1 0.81,4.31 1.17,7.3l131.74,-31.23l-8.87,-5.95l5.19,-9.34zm-645.99,2.1c2.22,3.56 5.02,6.73 8.25,9.39l-35.33,32.96c-2.53,-4.01 -5.78,-7.53 -9.58,-10.35c12.22,-10.66 24.44,-21.33 36.65,-32l0.01,0zm346.31,0c12.21,10.67 24.43,21.34 36.65,32c-3.8,2.82 -7.05,6.34 -9.58,10.35l-35.33,-32.96c3.23,-2.66 6.03,-5.83 8.25,-9.39l0.01,0zm-283.37,2.64c24.25,24.09 48.51,48.18 72.77,72.26c-0.45,3.33 -0.46,6.71 -0.02,10.04c0.9,6.88 3.74,13.48 8.1,18.87c4.76,5.92 11.3,10.4 18.57,12.6c1.17,0.36 2.36,0.66 3.56,0.91c-6.69,1.34 -12.97,4.54 -18.01,9.13c-4.3,3.89 -7.7,8.77 -9.85,14.16c-2.11,5.29 -3.02,11.06 -2.6,16.75c0.06,0.79 0.14,1.58 0.25,2.37l-72.78,72.26c-2.37,-3.2 -5.25,-6.03 -8.49,-8.35c24.64,-24.61 49.29,-49.22 73.93,-73.83c-2.86,-3.62 -4.95,-7.77 -6.73,-12.01c-0.44,-1.05 -0.85,-2.12 -1.25,-3.19c-14.91,3.6 -29.82,7.2 -44.72,10.8c1.54,6.94 4.45,13.5 7.98,19.65c2.85,5 6.05,9.79 9.14,14.64c-18.47,-6.95 -36.49,-15.23 -53.32,-25.55c-20.27,4.89 -40.53,9.78 -60.79,14.68c-0.34,-4.13 -1.37,-8.2 -3.02,-12l49.54,-12.15c-11.27,-8.08 -21.8,-17.23 -31.27,-27.37c9.47,-10.14 20,-19.29 31.27,-27.37c-16.51,-4.05 -33.02,-8.1 -49.54,-12.15c1.65,-3.8 2.68,-7.87 3.02,-12c20.26,4.9 40.53,9.79 60.79,14.68c16.83,-10.32 34.85,-18.6 53.32,-25.55c-4.92,7.72 -10.15,15.32 -13.72,23.79c-1.44,3.4 -2.6,6.91 -3.4,10.5l44.72,10.8c1.76,-4.7 3.83,-9.33 6.69,-13.47c0.41,-0.59 0.84,-1.17 1.29,-1.73c-24.64,-24.61 -49.29,-49.22 -73.93,-73.84c3.24,-2.31 6.11,-5.14 8.49,-8.34l0.01,0.01zm220.43,0c2.38,3.19 5.25,6.03 8.5,8.34l-73.94,73.84c2.87,3.61 4.95,7.77 6.73,12c0.44,1.06 0.86,2.13 1.26,3.2c14.9,-3.6 29.81,-7.2 44.72,-10.8c-1.55,-6.94 -4.46,-13.5 -7.98,-19.65c-2.85,-5 -6.05,-9.79 -9.14,-14.64c18.46,6.95 36.48,15.23 53.32,25.55c20.26,-4.89 40.52,-9.79 60.78,-14.68c0.34,4.13 1.37,8.2 3.02,12c-16.51,4.05 -33.02,8.1 -49.54,12.15c11.28,8.08 21.8,17.23 31.28,27.37c-9.48,10.14 -20,19.28 -31.28,27.37c16.52,4.05 33.03,8.1 49.54,12.15c-1.65,3.79 -2.68,7.86 -3.02,11.99c-20.26,-4.89 -40.52,-9.78 -60.78,-14.68c-16.84,10.33 -34.86,18.61 -53.32,25.56c4.91,-7.72 10.14,-15.33 13.71,-23.8c1.44,-3.39 2.6,-6.9 3.41,-10.5l-44.73,-10.8c-1.76,4.7 -3.83,9.33 -6.69,13.48c-0.41,0.59 -0.84,1.16 -1.29,1.72c24.65,24.62 49.29,49.23 73.93,73.84c-3.24,2.32 -6.11,5.15 -8.5,8.35c-24.26,-24.09 -48.51,-48.18 -72.77,-72.27c0.45,-3.32 0.46,-6.71 0.02,-10.03c-0.9,-6.88 -3.74,-13.49 -8.1,-18.88c-4.78,-5.94 -11.36,-10.44 -18.68,-12.63c-1.14,-0.34 -2.29,-0.63 -3.45,-0.87c6.68,-1.34 12.97,-4.54 18.01,-9.14c4.3,-3.89 7.7,-8.76 9.85,-14.15c2.1,-5.26 3,-11.01 2.6,-16.66c-0.06,-0.82 -0.14,-1.64 -0.25,-2.46c24.26,-24.09 48.52,-48.18 72.78,-72.27zm-409.96,17.1l-1.56,5.45c7.84,6.4 15.77,13.99 23.1,23.24c3.68,-10.97 9,-15.76 14.19,-22.04l-35.73,-6.65zm599.5,0l-35.74,6.65c5.19,6.28 10.51,11.06 14.19,22.04c7.33,-9.25 15.26,-16.84 23.1,-23.24l-1.55,-5.45zm-532.17,18.25c13.69,0 24.64,10.95 24.65,24.64l0,0.01c0,13.69 -10.96,24.65 -24.65,24.65s-24.65,-10.96 -24.65,-24.65c0,-13.69 10.95,-24.65 24.65,-24.65zm464.84,0c13.69,0 24.65,10.96 24.65,24.65c0,13.69 -10.96,24.65 -24.65,24.65c-13.7,0 -24.65,-10.96 -24.65,-24.65l0,-0.01c0.01,-13.69 10.95,-24.64 24.65,-24.64zm-609.12,13.99c-3.83,21.52 -5.8,43.46 -5.8,65.61c0,19.16 1.48,38.18 4.35,56.9l17.18,-6.63c-2.36,-16.56 -3.56,-33.35 -3.56,-50.27c0,-21.17 1.88,-42.14 5.55,-62.7l-17.72,-2.91zm753.39,0l-17.73,2.91c3.67,20.56 5.55,41.53 5.55,62.7c0,16.92 -1.2,33.71 -3.56,50.27l17.18,6.63c2.87,-18.72 4.35,-37.74 4.35,-56.9c0,-22.15 -1.97,-44.09 -5.79,-65.61zm-376.7,3.16c13.39,0.34 24.31,11.36 24.31,24.83c0,13.48 -10.92,24.09 -24.31,24.43c-13.39,-0.34 -24.32,-10.95 -24.32,-24.43c0,-13.47 10.93,-24.49 24.32,-24.83zm-280.23,1.7c-10.75,4.9 -21.26,8.04 -31.15,10.17l-1.1,5.56l34.84,10.35c-1.76,-7.95 -4.32,-14.63 -2.59,-26.08zm560.46,0c1.72,11.45 -0.84,18.13 -2.6,26.08l34.84,-10.35l-1.1,-5.56c-9.89,-2.13 -20.4,-5.27 -31.14,-10.17zm-520.99,42.99c2.68,0.6 5.47,0.93 8.33,0.93c1.87,0 3.7,-0.14 5.5,-0.4l0,33.91c-1.8,-0.27 -3.63,-0.41 -5.5,-0.41c-2.86,0 -5.65,0.33 -8.33,0.94l0,-19.21l0,-15.76zm481.52,0l0,34.97c-2.69,-0.61 -5.48,-0.94 -8.34,-0.94c-1.87,0 -3.7,0.14 -5.5,0.41l0,-33.91c1.8,0.26 3.63,0.4 5.5,0.4c2.86,0 5.65,-0.33 8.34,-0.93zm-341.45,1.7c-0.83,4.79 -1.25,10.01 -1.12,15.78c-0.13,5.78 0.29,10.99 1.12,15.78l45.31,-10.66c-0.17,-1.58 -0.56,-3.5 -0.6,-5.12c0.04,-1.61 0.43,-3.53 0.6,-5.11l-45.31,-10.67zm201.39,0l-45.32,10.67c0.17,1.58 0.56,3.5 0.6,5.11c-0.04,1.62 -0.43,3.54 -0.6,5.12l45.32,10.66c0.82,-4.79 1.24,-10 1.11,-15.78c0.13,-5.77 -0.29,-10.99 -1.11,-15.78zm-100.7,28.29c13.39,0.34 24.31,11.36 24.31,24.83c0,13.48 -10.92,24.09 -24.31,24.43c-13.39,-0.34 -24.32,-10.95 -24.32,-24.43c0,-13.47 10.93,-24.49 24.32,-24.83zm-232.42,17.52c13.69,0 24.65,10.95 24.65,24.65l0,0.01c-0.01,13.69 -10.96,24.64 -24.65,24.64c-13.7,0 -24.65,-10.96 -24.65,-24.65s10.95,-24.65 24.65,-24.65zm464.84,0c13.69,0 24.65,10.95 24.65,24.65c0,13.69 -10.96,24.65 -24.65,24.65c-13.7,0 -24.65,-10.96 -24.65,-24.65l0,-0.01c0,-13.69 10.95,-24.65 24.65,-24.65l0,0.01zm-506.21,9.67s-50.78,11.21 -75.72,19.88c-37.84,13.16 -110.67,46.87 -110.67,46.87l184.51,-43.48c-0.69,-7.94 -2.75,-16.16 1.87,-23.27l0.01,0zm547.58,0c4.62,7.11 2.56,15.33 1.87,23.27l184.51,43.48s-72.83,-33.71 -110.67,-46.87c-24.94,-8.67 -75.72,-19.88 -75.72,-19.88l0.01,0zm-547.81,30.1l-184.07,45.32s80.19,-3.16 119.87,-8.68c26.15,-3.63 76.46,-16.78 76.46,-16.78c-7.36,-4.22 -9.26,-12.49 -12.27,-19.86l0.01,0zm548.04,0c-3.01,7.37 -4.92,15.64 -12.27,19.86c0,0 50.31,13.15 76.46,16.78c39.68,5.52 119.87,8.68 119.87,8.68l-184.06,-45.32zm-474.25,5.17l35.32,32.96c-3.23,2.66 -6.03,5.82 -8.25,9.39c-12.22,-10.67 -24.44,-21.34 -36.66,-32.01c3.8,-2.82 7.05,-6.33 9.59,-10.34zm400.45,0c2.53,4.01 5.78,7.52 9.58,10.34c-12.22,10.67 -24.44,21.34 -36.66,32.01c-2.22,-3.57 -5.02,-6.73 -8.25,-9.39l35.33,-32.96zm-219.3,0.43c5.84,4.56 12.51,5.42 19.01,5.6l0,0.01c0.02,0 0.04,0 0.06,0c0.03,0 0.05,0 0.07,0l0,-0.01c6.5,-0.18 13.17,-1.04 19.02,-5.6l90.68,39.87c-0.31,0.43 -0.37,0.56 -0.67,1c-0.01,0.01 -0.01,0.02 -0.02,0.03c-0.01,0.02 -0.02,0.03 -0.03,0.05c-0.27,0.41 -0.54,0.82 -0.79,1.25c-0.03,0.04 -0.06,0.09 -0.09,0.14c-0.24,0.4 -0.48,0.8 -0.7,1.21c-0.04,0.07 -0.09,0.15 -0.13,0.22c-0.21,0.4 -0.42,0.8 -0.62,1.2c-0.04,0.08 -0.08,0.15 -0.12,0.23c-0.19,0.38 -0.37,0.77 -0.54,1.15c-0.06,0.12 -0.11,0.24 -0.16,0.35c-0.16,0.36 -0.31,0.72 -0.45,1.08c-0.06,0.14 -0.12,0.28 -0.17,0.42c-0.17,0.42 -0.33,0.85 -0.48,1.29c-0.02,0.06 -0.04,0.12 -0.06,0.17c0,0.01 -0.01,0.02 -0.01,0.02c-0.18,0.52 -0.34,1.04 -0.5,1.56l-104.16,-45.58l0,-0.06l-0.07,0.03l-0.07,-0.03l0,0.06l-104.16,45.58c-0.15,-0.52 -0.32,-1.04 -0.49,-1.56c0,-0.01 -0.01,-0.01 -0.01,-0.02c-0.02,-0.05 -0.04,-0.11 -0.06,-0.17c-0.15,-0.44 -0.31,-0.87 -0.48,-1.29c-0.05,-0.14 -0.11,-0.28 -0.17,-0.42c-0.14,-0.36 -0.29,-0.72 -0.45,-1.08c-0.05,-0.11 -0.11,-0.23 -0.16,-0.35c-0.17,-0.38 -0.35,-0.77 -0.54,-1.15c-0.04,-0.08 -0.08,-0.15 -0.12,-0.23c-0.2,-0.4 -0.41,-0.8 -0.62,-1.2c-0.05,-0.07 -0.09,-0.15 -0.13,-0.22c-0.22,-0.41 -0.46,-0.81 -0.7,-1.21c-0.03,-0.05 -0.06,-0.1 -0.09,-0.14c-0.25,-0.43 -0.52,-0.84 -0.79,-1.25c-0.01,-0.02 -0.02,-0.03 -0.03,-0.05c-0.01,-0.01 -0.02,-0.02 -0.03,-0.03c-0.29,-0.44 -0.36,-0.57 -0.66,-1l90.69,-39.87zm4.06,33.17l-13.42,6.11l0.13,383.91c5.58,23.88 13.61,47.68 23.31,68.89l0,-458.91l-10.02,0zm20.01,0l0,458.91c9.7,-21.21 17.73,-45.01 23.31,-68.89l0.13,-383.91l-13.42,-6.11l-10.02,0zm-145.77,4.15c13.7,0 24.65,10.95 24.65,24.65l0,0.01c0,13.69 -10.95,24.64 -24.65,24.64c-13.69,0 -24.65,-10.96 -24.65,-24.65c0,-13.69 10.96,-24.65 24.65,-24.65zm281.54,0c13.7,0 24.65,10.95 24.65,24.65s-10.95,24.65 -24.65,24.65c-13.69,0 -24.65,-10.96 -24.65,-24.65l0,-0.01c0,-13.69 10.96,-24.65 24.65,-24.65l0,0.01zm-485.24,5.49l-18.11,2.55c15.93,46.97 41.13,90.69 74.45,128.46l10.45,-15.36c-29.5,-34.3 -52.06,-73.57 -66.79,-115.65zm688.94,0c-14.72,42.08 -37.28,81.34 -66.78,115.65l10.45,15.36c33.32,-37.77 58.52,-81.49 74.45,-128.46l-18.12,-2.55zm-528.57,28.21s-37.44,36.09 -54.17,56.52c-25.39,30.99 -69.87,97.79 -69.87,97.79l134.6,-133.48c-4.73,-6.41 -10.79,-12.35 -10.56,-20.82l0,-0.01zm368.2,0c0.24,8.48 -5.82,14.42 -10.55,20.82l134.6,133.48s-44.49,-66.79 -69.87,-97.78c-16.74,-20.43 -54.18,-56.52 -54.18,-56.52zm-352.86,25.6l-133.27,134.82s66.73,-44.59 97.68,-70.03c20.4,-16.77 56.43,-54.26 56.43,-54.26c-8.48,0.24 -14.42,-5.81 -20.84,-10.53zm337.52,0c-6.41,4.72 -12.35,10.77 -20.83,10.52c0,0 36.02,37.5 56.42,54.27c30.95,25.44 97.68,70.03 97.68,70.03l-133.27,-134.82zm-405.46,102.46l-15.36,10.5c59.55,51.63 133.76,83.6 212.24,91.68l0,-18.06c-72.58,-7.84 -141.22,-37.12 -196.88,-84.12zm473.41,0c-55.65,47 -124.3,76.28 -196.88,84.11l0,18.06c78.49,-8.07 152.69,-40.04 212.24,-91.67l-15.36,-10.5z" fill="#ffffff" id="svg_1"/>
 </g>
</svg>