<?xml version="1.0" encoding="UTF-8"?>
<svg style="color:red;" width="1200px" height="1200px" enable-background="new 0 0 1200 1200" version="1.1" viewBox="0 0 1200 1200" xml:space="preserve"
     xmlns="http://www.w3.org/2000/svg">
<path d="m599.8 50.524 7e-3 0.48973c-1.3126 1.6924-2.6061 3.522-5.1166 3.8506-4.4526 0.58274-8.5878 0.17199-10.955-0.65055-1.2753 4.5879-2.7959 6.2892-4.2629 8.6252h20.521l2e-3 -0.13742 3e-3 0.13742h20.521c-1.467-2.3359-2.9875-4.0372-4.2629-8.6252-2.3676 0.82254-6.5028 1.2333-10.955 0.65055-2.5105-0.32858-3.804-2.1582-5.1166-3.8506l7e-3 -0.48973c-0.0655 0.0814-0.13089 0.1673-0.19589 0.24998-0.0648-0.0824-0.12911-0.16881-0.19443-0.24998zm-14.781 19.474c5.2293 4.1951 8.8269 9.0972 5.9733 16.785h18.006c-2.8536-7.6883 0.74396-12.59 5.9733-16.785h-14.976zm-0.82159 24.471c0.31231 3.9266-1.2251 4.5957-2.3288 6.0288 6.6372 1.7494 9.7291 4.1776 10.236 10.723-5.7805 3.5745-5.6844 10.389-0.0921 14.552-5.7805 3.5745-5.6838 10.39-0.0775 14.468-5.7664 3.4903-5.6712 10.304-0.0789 14.467-5.7805 3.5745-5.6844 10.389-0.0921 14.552-5.7805 3.5745-5.6858 10.389-0.0936 14.552-5.7805 3.5745-5.6844 10.389-0.0921 14.552-5.7805 3.5745-5.6844 10.389-0.0921 14.552-5.7805 3.5745-5.6844 10.389-0.0921 14.552-5.7805 3.5745-5.6858 10.389-0.0936 14.552-5.7805 3.5745-5.6844 10.389-0.0921 14.552-5.7805 3.5745-5.6741 10.317-0.0819 14.48-3.0449 2.9793-3.3005 4.3206-3.3901 7.4849l12.259 0.06 12.258-0.06c-0.0896-3.1642-0.34518-4.5056-3.3901-7.4849 5.5923-4.1627 5.6986-10.906-0.0819-14.48 5.5923-4.1626 5.6884-10.977-0.0921-14.552 5.5923-4.1627 5.6869-10.977-0.0936-14.552 5.5923-4.1626 5.6884-10.977-0.0921-14.552 5.5923-4.1626 5.6884-10.977-0.0921-14.552 5.5923-4.1626 5.6884-10.977-0.0921-14.552 5.5923-4.1627 5.6869-10.977-0.0936-14.552 5.5923-4.1627 5.6884-10.977-0.0921-14.552 5.5923-4.1627 5.6875-10.977-0.0789-14.467 5.6063-4.0785 5.703-10.894-0.0775-14.468 5.5923-4.1627 5.6884-10.977-0.0921-14.552 0.5071-6.5453 3.599-8.9735 10.236-10.723-1.1037-1.4331-2.6411-2.1023-2.3288-6.0288h-15.797zm-8.5433 110.15c-84.49 5.2668-164.86 38.187-228.42 93.567l12.457 12.971c60.186-52.183 136.11-83.311 215.97-88.534zm48.682 0v18.005c79.859 5.2224 155.78 36.35 215.96 88.534l12.457-12.971c-63.563-55.38-143.93-88.3-228.42-93.567zm-360.5 37.122c-0.49909-1e-3 -0.96041 0.15907-1.3332 0.43127-0.27281 0.37237-0.43213 0.83268-0.43126 1.3318l0.0336 19.576c2e-3 1.244 1.0059 2.2432 2.2498 2.2411l19.576-0.0336c0.46921-7.5e-4 0.90268-0.14543 1.2616-0.39033 0.24548-0.35855 0.39022-0.79239 0.39179-1.2616l0.0658-19.576c4e-3 -1.244-0.99416-2.2486-2.2382-2.2528zm672.32 0-19.576 0.0658c-1.244 4e-3 -2.2456 1.0088-2.2381 2.2528l0.066 19.576c0 0.46921 0.1463 0.90306 0.3917 1.2616 0.359 0.2449 0.7925 0.38959 1.2617 0.39033l19.576 0.0336c1.2439 2e-3 2.2498-0.99709 2.2498-2.2411l0.034-19.576c0-0.49909-0.1584-0.9594-0.4312-1.3318-0.3728-0.27219-0.8342-0.43276-1.3332-0.43126zm-643.42 19.586-0.45757 10.669-10.669 0.44003 96.001 95.469c1.8727-2.366 3.3168-4.076 4.8155-5.6166 1.543-1.4962 3.2548-2.9378 5.6239-4.8067zm614.52 0-95.314 96.154c2.3691 1.8689 4.0809 3.3105 5.624 4.8067 1.4986 1.5406 2.9428 3.2505 4.8154 5.6166l96.001-95.469-10.669-0.44003zm-320.35 25.984c-0.64614 0.69567-1.2775 1.6986-2.7703 2.035 3.5727 1.0684 6.481 7.4812 3.6781 11.249-3.4043 4.5766-10.113 1.0345-14.59-1.782-5.5188-3.4718-8.2408-10.719-12.878-9.8517 2.4382 2.761 2.5697 7.8991-0.0643 12.581-0.80339 1.1993-2.8964 1.3175-7.9951 1.2762-4.354-0.0353-7.8228-0.25675-14.139 1.3435-11.106 2.8334-16.839 10.738-25.199 16.44-1.0687-1.1686 0.48862-3.5578 0.29091-7.1077-0.31636-5.6803-5.0685-7.0133-10.404-6.1677-4.7851 0.75836-9.6401 3.2925-9.1778 10.496 0.78277 12.195 8.5114 16.068 12.414 16.195 7.239 0.2348 18.508-6.4448 25.226-12.91 3.1489-3.0303 6.3811-5.8847 11.901-5.6824-2.6271 7.6794-0.54485 12.383 3.627 15.628-0.53223-0.95215 11.325-17.386 24.982-11.569 18.23 7.7638 9.3409 26.557 9.3079 26.56 11.273 9.0072 15.333 20.227 18.692 31.774 0.13746 0.44774 0.20374 0.83059 0.2312 1.2002 0.0274-0.63052 0.14152-1.2002 0.14152-1.2002 3.359-11.547 7.4186-22.767 18.692-31.774-0.0331-3e-3 -8.9219-18.796 9.3078-26.56 13.658-5.8166 25.514 10.617 24.982 11.569 4.1717-3.2449 6.254-7.9482 3.6269-15.628 5.5202-0.20232 8.7523 2.6521 11.901 5.6824 6.7182 6.4652 17.988 13.145 25.226 12.91 3.9031-0.1266 11.633-3.9996 12.416-16.195 0.4624-7.2039-4.394-9.738-9.1792-10.496-5.3357-0.84561-10.088 0.48738-10.404 6.1677-0.1978 3.5499 1.3596 5.9391 0.2909 7.1077-8.3592-5.702-14.092-13.607-25.199-16.44-6.3166-1.6002-9.7854-1.3787-14.139-1.3435-5.0988 0.0413-7.1917-0.0769-7.9951-1.2762-2.634-4.6819-2.5025-9.82-0.0643-12.581-4.637-0.86746-7.359 6.3798-12.878 9.8517-4.4771 2.8165-11.185 6.3587-14.59 1.782-2.8028-3.7681 0.10538-10.181 3.6781-11.249-1.4928-0.3363-2.1241-1.3393-2.7703-2.035h-11.208zm-128.04 36.557c-18.5 6.5651-28.182 14.06-52.222 36.864-7.8198-0.42469-14.728 1.8302-19.544 6.2408-4.4184 4.8089-6.6851 11.713-6.273 19.534-22.843 24.003-30.353 33.673-36.948 52.163 5.9905 3.5309 7.9217 4.3607 13.16 5.276 4.5664-10.542 6.0394-21.824 33.438-46.443 11.836-1.2136 21.322 1.939 32.04 4.9441-2.9879-10.723-6.1255-20.215-4.893-32.049 24.662-27.359 35.948-28.812 46.497-33.362-0.90683-5.2397-1.7342-7.1726-5.2555-13.169zm282.25 0c-3.5213 5.9961-4.3486 7.929-5.2554 13.169 10.549 4.5494 21.834 6.0029 46.497 33.362 1.2325 11.834-1.9051 21.326-4.893 32.049 10.718-3.0051 20.204-6.1577 32.04-4.9441 27.398 24.618 28.871 35.901 33.438 46.443 5.2383-0.91523 7.1694-1.745 13.16-5.276-6.5949-18.49-14.105-28.16-36.948-52.163 0.4121-7.8205-1.8546-14.725-6.273-19.534-4.816-4.4106-11.724-6.6655-19.544-6.2408-24.04-22.804-33.721-30.299-52.222-36.864zm-177.67 0.74557c-1.3398-7e-3 -2.7088 0.0444-4.064 0.0775 6.3937 4.4008 5.7749 8.7186 4.583 12.673-2.2282 7.3932-8.9021 9.2735-13.93 12.828 4.7785 4.5807 11.576 5.7405 12.347 17.139 0.50814 7.5156-4.025 11.806-7.5814 16.744 7.6417 4.8744 16.671 8.7606 16.772 20.889 0.0879 10.489-7.7187 14.676-14.568 19.342 8.2798 3.1642 12.99 9.0614 13.275 19.855 0.2472 9.3438-4.0954 14.575-8.4907 19.996l20.79 10.072c3.7093-1.1218 7.5244-2.1186 12.813-1.3537v-90.083c-4.5433-14.577-11.516-26.966-24.878-33.599 2.6692-3.6372 5.9147-8.4246 5.0581-15.082-1.075-8.3562-6.3206-9.47-12.126-9.4994zm73.099 0c-5.8058 0.0293-11.051 1.1431-12.126 9.4994-0.85653 6.6578 2.389 11.445 5.0581 15.082-13.362 6.6323-20.335 19.021-24.878 33.599v90.083c5.2891-0.76494 9.1042 0.23196 12.813 1.3537l20.79-10.072c-4.3953-5.421-8.7379-10.652-8.4907-19.996 0.28556-10.794 4.9956-16.691 13.275-19.855-6.849-4.6666-14.656-8.8537-14.568-19.342 0.10166-12.128 9.1305-16.015 16.772-20.889-3.5564-4.9381-8.0895-9.2289-7.5813-16.744 0.77069-11.399 7.5686-12.559 12.347-17.139-5.0283-3.5546-11.702-5.4348-13.93-12.828-1.1918-3.9546-1.8107-8.2723 4.583-12.673-1.3552-0.0331-2.7242-0.0842-4.064-0.0775zm-318.93 2.3449c-39.341 42.61-68.037 93.268-84.373 147.89l17.389 4.5392c15.501-51.501 42.55-99.294 79.582-139.6zm564.76 0-12.599 12.83c37.032 40.303 64.081 88.096 79.582 139.6l17.389-4.5392c-16.336-54.62-45.032-105.28-84.373-147.89zm-453.47 43.428-4.1693 3.836c3.3377 9.555 6.1313 20.165 7.5536 31.882 8.8673-7.4346 15.901-8.7359 23.611-11.374zm342.18 0-26.995 24.345c7.7096 2.6376 14.744 3.939 23.611 11.374 1.4222-11.717 4.2158-22.327 7.5536-31.882zm-376.79 34.23-3.8418 4.1635 24.302 27.033c2.65-7.7053 3.9613-14.737 11.41-23.592-11.715-1.4411-22.321-4.2517-31.871-7.6048zm411.4 0c-9.5497 3.3531-20.156 6.1636-31.871 7.6048 7.4488 8.8554 8.76 15.887 11.41 23.592l24.302-27.033zm-346.47 1.9019c-20.975 0-38.123 17.148-38.123 38.123 0 4.0233 0.63613 7.9042 1.804 11.552l-41.024 35.827c-4.4237-1.8082-9.2538-2.8127-14.312-2.8127-20.975 1e-5 -38.123 17.148-38.123 38.123 0 14.746 8.4816 27.592 20.804 33.926v41.494c-12.323 6.3343-20.804 19.18-20.804 33.926 0 20.975 17.148 38.123 38.123 38.123 5.0581 0 9.8882-1.0044 14.312-2.8127l41.024 35.827c-1.1678 3.6478-1.804 7.5286-1.804 11.552-1e-5 20.975 17.148 38.123 38.123 38.123 19.662 0 35.927-15.078 37.888-34.243l89.225-42.335c2.1469 1.7175 10.333 2.9229 13.54 2.8829v0.01c0.0316 7e-4 0.0813 0 0.11403 0 0.0332-8e-4 0.0835 0 0.11549 0v-0.01c3.2074 0.04 11.393-1.1654 13.54-2.8829l89.225 42.335c1.9606 19.165 18.226 34.243 37.888 34.243 20.975 0 38.123-17.148 38.123-38.123 0-4.0233-0.6361-7.9041-1.804-11.552l41.024-35.827c4.4237 1.8083 9.2539 2.8127 14.312 2.8127 20.975 0 38.123-17.148 38.123-38.123 0-14.746-8.4816-27.592-20.804-33.926v-41.494c12.322-6.3343 20.804-19.18 20.804-33.926 0-20.975-17.148-38.123-38.123-38.123-5.058 0-9.8882 1.0045-14.312 2.8127l-41.024-35.827c1.1679-3.6477 1.804-7.5286 1.804-11.552 0-20.975-17.148-38.123-38.123-38.123-19.662 0-35.927 15.078-37.888 34.243l-89.225 42.335c-4.4701-1.5757-7.1497-2.0482-13.578-2.1212v-3e-3c-0.0273 2.8e-4 -0.0489 1e-3 -0.076 1e-3 -0.0271-2.9e-4 -0.0488-1e-3 -0.076-1e-3v3e-3c-6.4284 0.073-9.1094 0.54549-13.58 2.1212l-89.225-42.335c-1.9606-19.165-18.226-34.243-37.888-34.243zm0 13.473c13.691 0 24.646 10.953 24.65 24.643v7e-3c0 13.694-10.957 24.65-24.65 24.65-13.694 0-24.65-10.957-24.65-24.65-1e-5 -13.694 10.957-24.65 24.65-24.65zm281.54 0c13.694 0 24.65 10.957 24.65 24.65s-10.957 24.65-24.65 24.65c-13.694 0-24.65-10.957-24.65-24.65v-7e-3c0.01-13.69 10.959-24.643 24.65-24.643zm-439.27 9.1193c-12.344 15.264-16.682 26.712-25.264 58.717-6.8894 3.7237-11.602 9.257-13.404 15.534-1.2546 6.4089 0.42173 13.48 4.8593 19.933-6.9347 32.402-8.2861 44.57-4.2482 63.781 6.9526-0.11941 9.0326-0.4204 13.977-2.377-1.6145-11.374-6.254-21.763 4.2439-57.069 9.4579-7.2191 19.193-9.489 29.902-12.527-8.1503-7.5816-15.784-14.034-20.917-24.769 6.7332-36.213 15.596-43.35 22.213-52.741-3.511-3.9938-5.2264-5.2092-11.362-8.4819zm597.01 0c-6.1354 3.2727-7.8509 4.4881-11.362 8.4819 6.6174 9.3908 15.48 16.527 22.214 52.741-5.1324 10.734-12.766 17.187-20.917 24.769 10.709 3.0379 20.444 5.3078 29.902 12.527 10.498 35.306 5.8583 45.695 4.2438 57.069 4.9446 1.9566 7.0246 2.2576 13.977 2.377 4.038-19.211 2.6864-31.379-4.2482-63.781 4.4375-6.4527 6.1139-13.524 4.8593-19.933-1.8018-6.277-6.5147-11.81-13.404-15.534-8.5824-32.005-12.92-43.453-25.264-58.717zm-788.22 21.382c-0.4316-0.0203-0.87327 0.0836-1.2718 0.32601l-16.727 10.173c-0.42642 0.25935-0.73509 0.6359-0.91076 1.0628-0.038 0.46004 0.0659 0.93593 0.32746 1.361l10.258 16.674c0.65183 1.0595 2.0294 1.3872 3.089 0.73533l16.673-10.258c0.39964-0.24587 0.69467-0.5948 0.87275-0.99116 0.0219-0.43397-0.0807-0.87827-0.32454-1.2792l-10.173-16.727c-0.40402-0.66427-1.0934-1.0436-1.8128-1.0774zm979.43 0c-0.7193 0.0338-1.4087 0.41315-1.8128 1.0774l-10.173 16.727c-0.2438 0.40089-0.3462 0.84519-0.3245 1.2792 0.178 0.39636 0.4731 0.74529 0.8728 0.99116l16.673 10.258c1.0595 0.65183 2.4372 0.32421 3.089-0.73533l10.258-16.674c0.2616-0.42509 0.3656-0.90098 0.3275-1.361-0.1757-0.4269-0.4844-0.80345-0.9108-1.0628l-16.727-10.173c-0.3986-0.24242-0.8402-0.34629-1.2718-0.32601zm-593.94 4.8769c34.72 15.056 69.441 30.113 104.16 45.169 0.0408 0.11582 0.14762 7e-3 0.23931-0.0448 34.686-15.042 69.372-30.083 104.06-45.125 1.1244 3.7835 2.8444 7.3864 5.0581 10.653 0.0685 0.24028 0.54946 0.58502 0.40141 0.749-30.202 13.278-60.404 26.556-90.606 39.834-3.2265-2.539-7.071-4.2345-11.074-5.0998-2.6482-0.58567-5.3756-0.83607-8.0734-0.90875-3.2738 0.10227-6.5839 0.46161-9.7512 1.3637-3.3456 0.93741-6.5243 2.4976-9.2607 4.6448l-90.69-39.87c1.6954-2.4282 3.1607-5.0241 4.2724-7.7718 0.48311-1.1739 0.90936-2.3797 1.2651-3.5944zm-368.61 7.2217 5.1853 9.3342-8.8678 5.9499 131.74 31.239c0.36046-2.9958 0.6996-5.207 1.1724-7.3036 0.53391-2.0819 1.24-4.2048 2.2835-7.0361zm945.67 0-131.51 32.184c1.0435 2.8313 1.7496 4.9542 2.2835 7.0361 0.4728 2.0966 0.8119 4.3078 1.1724 7.3036l131.74-31.239-8.8679-5.9499zm-645.99 2.0949c2.221 3.568 5.0226 6.7362 8.2568 9.3956l-35.328 32.96c-2.5366-4.0097-5.7866-7.527-9.5871-10.347 12.219-10.669 24.439-21.339 36.658-32.008zm346.31 0c12.219 10.669 24.439 21.339 36.658 32.008-3.8005 2.8203-7.0505 6.3376-9.5871 10.347l-35.328-32.96c3.2343-2.6594 6.0358-5.8276 8.2568-9.3956zm-283.37 2.6446c24.258 24.088 48.516 48.175 72.774 72.263-0.45091 3.3256-0.46284 6.7092-0.0177 10.036 0.89613 6.8763 3.7384 13.483 8.0994 18.873 4.7572 5.9165 11.296 10.397 18.569 12.599 1.171 0.35808 2.3592 0.65955 3.5592 0.90347-6.6843 1.3425-12.974 4.5441-18.011 9.1364-4.2974 3.8927-7.7026 8.7673-9.8446 14.157-2.1158 5.2896-3.0195 11.065-2.5992 16.747 0.0599 0.79207 0.13856 1.5828 0.24444 2.3701l-72.774 72.263c-2.3759-3.2019-5.255-6.0252-8.497-8.3451 24.644-24.612 49.288-49.224 73.932-73.836-2.8625-3.614-4.9479-7.7711-6.7252-12.005-0.43992-1.0572-0.85772-2.1236-1.2568-3.1969-14.907 3.6002-29.814 7.2003-44.721 10.8 1.5429 6.9413 4.4567 13.503 7.9808 19.653 2.8492 5.0008 6.0497 9.7879 9.1379 14.641-18.465-6.9494-36.483-15.23-53.318-25.554-20.263 4.8934-40.526 9.7869-60.788 14.68-0.33878-4.1284-1.3698-8.196-3.0156-11.996l49.539-12.15c-11.276-8.0826-21.8-17.229-31.273-27.37 9.473-10.141 19.996-19.287 31.273-27.37-16.513-4.0499-33.026-8.0998-49.539-12.15 1.6458-3.8002 2.6768-7.8679 3.0156-11.996 20.263 4.8934 40.526 9.7869 60.788 14.68 16.835-10.324 34.854-18.604 53.318-25.554-4.9131 7.7207-10.144 15.325-13.716 23.793-1.4358 3.3927-2.5945 6.9058-3.403 10.501l44.721 10.8c1.7622-4.7003 3.8341-9.3291 6.6942-13.474 0.41065-0.58973 0.83892-1.1673 1.2877-1.7286-24.644-24.612-49.288-49.225-73.932-73.837 3.2418-2.3185 6.1169-5.1456 8.497-8.342zm220.43 0c2.3884 3.1901 5.2559 6.0245 8.5002 8.342l-73.932 73.836c2.8625 3.614 4.9479 7.7712 6.7251 12.005 0.43991 1.0572 0.8577 2.1236 1.2568 3.1969 14.907-3.6002 29.814-7.2003 44.721-10.8-1.5428-6.9413-4.4566-13.503-7.9807-19.653-2.8492-5.0009-6.0498-9.788-9.138-14.641 18.465 6.9493 36.483 15.23 53.318 25.554 20.263-4.8934 40.526-9.7869 60.788-14.68 0.34071 4.128 1.3659 8.1984 3.018 11.996-16.513 4.0499-33.026 8.0998-49.539 12.15 11.276 8.0827 21.8 17.229 31.273 27.37-9.473 10.141-19.996 19.287-31.273 27.37 16.513 4.0499 33.026 8.0998 49.539 12.15-1.652 3.798-2.6773 7.8683-3.018 11.996-20.263-4.8934-40.526-9.7869-60.788-14.68-16.835 10.324-34.853 18.605-53.318 25.554 4.9131-7.7206 10.144-15.325 13.716-23.793 1.4358-3.3927 2.5944-6.9058 3.4029-10.501l-44.722-10.801c-1.7621 4.7003-3.834 9.3291-6.6942 13.474-0.41064 0.58973-0.83892 1.1673-1.2877 1.7286 24.644 24.612 49.288 49.224 73.932 73.836-3.2433 2.3199-6.1185 5.1495-8.5022 8.3453-24.258-24.088-48.515-48.175-72.773-72.263 0.45081-3.3256 0.46309-6.7092 0.0178-10.036-0.89614-6.8763-3.7384-13.483-8.0995-18.873-4.7808-5.9464-11.362-10.441-18.678-12.632-1.1356-0.34355-2.2873-0.63391-3.45-0.87025 6.6843-1.3426 12.974-4.5441 18.011-9.1365 4.2974-3.8927 7.7028-8.7673 9.8447-14.157 2.1047-5.2614 3.0094-11.003 2.606-16.656-0.061-0.82252-0.14126-1.6437-0.25136-2.4612 24.259-24.089 48.518-48.177 72.776-72.266zm-409.96 17.1-1.5525 5.4485c7.8384 6.4031 15.764 13.991 23.099 23.238 3.6761-10.972 8.9938-15.756 14.189-22.034zm599.5 0-35.736 6.6531c5.1953 6.2772 10.513 11.061 14.189 22.034 7.335-9.2474 15.261-16.835 23.099-23.238zm-532.17 18.25c13.691 0 24.646 10.953 24.65 24.643v7e-3c0 13.694-10.957 24.65-24.65 24.65s-24.65-10.957-24.65-24.65c0-13.694 10.957-24.65 24.65-24.65zm464.84 0c13.694 0 24.65 10.957 24.65 24.65 0 13.694-10.957 24.65-24.65 24.65-13.694 0-24.65-10.957-24.65-24.65v-7e-3c0.01-13.69 10.959-24.643 24.65-24.643zm-609.12 13.986c-3.8269 21.519-5.792 43.465-5.792 65.613 0 19.165 1.4734 38.18 4.3491 56.898l17.179-6.6253c-2.3568-16.561-3.5641-33.355-3.5641-50.273 0-21.166 1.8838-42.139 5.5537-62.702zm753.39 0-17.725 2.9106c3.67 20.563 5.5537 41.536 5.5537 62.702 0 16.918-1.2073 33.712-3.5641 50.273l17.179 6.6253c2.8758-18.718 4.3491-37.733 4.3491-56.898 0-22.147-1.9651-44.093-5.792-65.613zm-376.7 3.1621c13.39 0.34074 24.317 11.36 24.317 24.836 0 13.476-10.927 24.089-24.317 24.428-13.389-0.34016-24.316-10.952-24.316-24.428 0-13.476 10.926-24.495 24.316-24.836zm-280.23 1.706c-10.742 4.8922-21.253 8.0367-31.147 10.167l-1.1008 5.5581 34.846 10.352c-1.7665-7.9545-4.322-14.635-2.5978-26.077zm560.46 0c1.7242 11.442-0.8313 18.123-2.5978 26.077l34.846-10.352-1.1008-5.5581c-9.8944-2.1308-20.406-5.2752-31.147-10.167zm-520.99 42.985c2.6864 0.60505 5.4743 0.93415 8.3372 0.93415 1.8655 0 3.6986-0.14001 5.4938-0.40202v33.904c-1.7952-0.26201-3.6283-0.40201-5.4938-0.40201-2.8629 0-5.6507 0.32908-8.3372 0.93414v-19.208zm481.52 0v34.968c-2.6865-0.60506-5.4743-0.93414-8.3372-0.93414-1.8654 0-3.6986 0.14-5.4937 0.40201v-33.904c1.7951 0.26201 3.6283 0.40202 5.4937 0.40202 2.8629 0 5.6507-0.3291 8.3372-0.93415zm-341.45 1.7031c-0.82639 4.791-1.2415 10.007-1.1198 15.781-0.12169 5.7739 0.29342 10.99 1.1198 15.781l45.314-10.664c-0.16798-1.5809-0.55983-3.5021-0.60376-5.1166 0.0439-1.6146 0.43578-3.5358 0.60376-5.1166zm201.39 0-45.314 10.664c0.168 1.5808 0.55989 3.502 0.60379 5.1166-0.044 1.6146-0.43579 3.5358-0.60379 5.1166l45.314 10.664c0.8263-4.791 1.2414-10.007 1.1198-15.781 0.1216-5.7739-0.2935-10.99-1.1198-15.781zm-100.7 28.283c13.39 0.34078 24.317 11.361 24.317 24.837 0 13.476-10.927 24.087-24.317 24.427-13.389-0.3401-24.316-10.951-24.316-24.427 0-13.476 10.926-24.496 24.316-24.837zm-232.42 17.521c13.694 0 24.65 10.957 24.65 24.65v0.01c-4e-3 13.69-10.959 24.643-24.65 24.643-13.694 0-24.65-10.957-24.65-24.65s10.957-24.65 24.65-24.65zm464.84 0c13.694 0 24.65 10.957 24.65 24.65 0 13.694-10.957 24.65-24.65 24.65-13.691 0-24.65-10.953-24.65-24.643v-0.01c0-13.694 10.957-24.65 24.65-24.65zm-506.21 9.6747s-50.779 11.205-75.72 19.877c-37.84 13.158-110.67 46.871-110.67 46.871l184.51-43.482c-0.68292-7.9329-2.7495-16.158 1.8785-23.266zm547.58 0c4.6281 7.1076 2.5615 15.333 1.8786 23.266l184.51 43.482s-72.83-33.713-110.67-46.871c-24.941-8.6728-75.72-19.877-75.72-19.877zm-547.81 30.098-184.07 45.318s80.192-3.1547 119.87-8.6733c26.154-3.6376 76.464-16.787 76.464-16.787-7.3572-4.2199-9.2634-12.485-12.268-19.858zm548.04 0c-3.0048 7.3735-4.9109 15.638-12.268 19.858 0 0 50.31 13.149 76.464 16.787 39.68 5.5186 119.87 8.6733 119.87 8.6733zm-474.25 5.1677 35.328 32.96c-3.2342 2.6594-6.0357 5.8276-8.2568 9.3956-12.219-10.67-24.439-21.339-36.658-32.008 3.8004-2.8203 7.0504-6.3376 9.5871-10.347zm400.45 0c2.5366 4.0097 5.7866 7.527 9.5871 10.347-12.219 10.67-24.439 21.339-36.658 32.008-2.221-3.568-5.0225-6.7362-8.2568-9.3956zm-219.3 0.4357c5.8431 4.5605 12.515 5.4209 19.012 5.5932v0.01c0.0224-6e-4 0.0449 0 0.0672 0 0.0228 5e-4 0.0459 0 0.0687 0v-0.01c6.4971-0.1723 13.169-1.0327 19.012-5.5932l90.688 39.87c-0.3095 0.4245-0.3759 0.5552-0.6681 0.9926-0.01 0.013-0.018 0.024-0.026 0.037-0.01 0.013-0.017 0.028-0.026 0.043-0.2732 0.4112-0.5392 0.8278-0.7968 1.25-0.03 0.049-0.06 0.097-0.089 0.1462-0.2407 0.3985-0.4739 0.8012-0.7003 1.2089-0.041 0.073-0.082 0.1469-0.1227 0.2208-0.2161 0.3952-0.4249 0.7952-0.6272 1.1987-0.038 0.077-0.077 0.1527-0.1155 0.2295-0.188 0.3814-0.3683 0.7666-0.5438 1.1549-0.053 0.1167-0.1077 0.2321-0.1594 0.3494-0.1566 0.356-0.3058 0.716-0.4517 1.0775-0.056 0.138-0.1139 0.2748-0.1681 0.4137-0.1668 0.4275-0.325 0.859-0.4766 1.2937-0.02 0.059-0.044 0.1165-0.064 0.1755 0 0.01-0.01 0.014-0.01 0.02-0.1762 0.514-0.3427 1.0319-0.4971 1.5554l-104.16-45.577v-0.06l-0.0687 0.029-0.0672-0.029v0.06l-104.16 45.577c-0.15441-0.5235-0.32099-1.0414-0.49705-1.5554-2e-3 -0.01-4e-3 -0.014-6e-3 -0.02-0.0202-0.059-0.0438-0.1166-0.0643-0.1755-0.15159-0.4347-0.30983-0.8662-0.47658-1.2938-0.0543-0.1388-0.11228-0.2756-0.16811-0.4136-0.14594-0.3616-0.29515-0.7215-0.45173-1.0775-0.0517-0.1173-0.1065-0.2327-0.15935-0.3494-0.17552-0.3883-0.3558-0.7735-0.54382-1.1548-0.0379-0.077-0.077-0.153-0.11549-0.2296-0.20234-0.4035-0.41108-0.8035-0.62715-1.1988-0.0405-0.074-0.0819-0.1471-0.1228-0.2207-0.22639-0.4077-0.45953-0.8105-0.70024-1.2089-0.0295-0.049-0.0594-0.098-0.0892-0.1462-0.25755-0.4221-0.52348-0.8388-0.79673-1.2499-9e-3 -0.014-0.0171-0.029-0.0263-0.043-8e-3 -0.012-0.018-0.024-0.0264-0.037-0.29219-0.4373-0.35858-0.5681-0.66808-0.9925zm4.064 33.166-13.419 6.1123 0.12718 383.91c5.578 23.877 13.612 47.681 23.308 68.886v-458.91zm20.015 0v458.91c9.6967-21.205 17.73-45.009 23.308-68.886l0.12718-383.91-13.419-6.1123zm-145.77 4.1475c13.694 0 24.65 10.957 24.65 24.65v0.01c-4e-3 13.69-10.959 24.643-24.65 24.643-13.694 0-24.65-10.957-24.65-24.65 0-13.694 10.957-24.65 24.65-24.65zm281.54 0c13.694 0 24.65 10.957 24.65 24.65s-10.957 24.65-24.65 24.65c-13.691 0-24.65-10.953-24.65-24.643v-0.01c0-13.694 10.957-24.65 24.65-24.65zm-485.24 5.4981-18.119 2.5481c15.936 46.967 41.13 90.686 74.456 128.46l10.444-15.36c-29.5-34.307-52.058-73.574-66.781-115.65zm688.94 0c-14.722 42.073-37.28 81.34-66.781 115.65l10.444 15.36c33.326-37.773 58.52-81.492 74.456-128.46zm-528.57 28.21s-37.44 36.086-54.175 56.512c-25.388 30.99-69.872 97.789-69.872 97.789l134.6-133.48c-4.7273-6.4071-10.789-12.342-10.556-20.82zm368.2 0c0.2324 8.4783-5.8291 14.413-10.556 20.82l134.6 133.48s-44.484-66.799-69.872-97.789c-16.734-20.427-54.175-56.512-54.175-56.512zm-352.86 25.596-133.27 134.82s66.728-44.591 97.678-70.029c20.4-16.767 56.425-54.265 56.425-54.265-8.478 0.246-14.422-5.8056-20.836-10.523zm337.52 0c-6.4147 4.717-12.358 10.769-20.836 10.523 0 0 36.025 37.498 56.425 54.265 30.949 25.438 97.678 70.029 97.678 70.029zm-405.46 102.46-15.364 10.498c59.551 51.631 133.76 83.601 212.24 91.677v-18.06c-72.583-7.8369-141.22-37.117-196.88-84.114zm473.41 0c-55.656 46.997-124.3 76.277-196.88 84.114v18.06c78.488-8.0754 152.69-40.046 212.24-91.677z"/>
</svg>
