<?xml version="1.0" encoding="UTF-8" standalone="no"?>
<!-- Created with Inkscape (http://www.inkscape.org/) -->

<svg
   xmlns:dc="http://purl.org/dc/elements/1.1/"
   xmlns:cc="http://creativecommons.org/ns#"
   xmlns:rdf="http://www.w3.org/1999/02/22-rdf-syntax-ns#"
   xmlns:svg="http://www.w3.org/2000/svg"
   xmlns="http://www.w3.org/2000/svg"
   xmlns:sodipodi="http://sodipodi.sourceforge.net/DTD/sodipodi-0.dtd"
   xmlns:inkscape="http://www.inkscape.org/namespaces/inkscape"
   width="141.64207mm"
   height="205.0806mm"
   viewBox="0 0 141.64208 205.0806"
   version="1.1"
   id="svg8"
   inkscape:version="0.92.4 (5da689c313, 2019-01-14)"
   sodipodi:docname="Stormlight_Archive_Space.svg">
  <defs
     id="defs2" />
  <sodipodi:namedview
     id="base"
     pagecolor="#ffffff"
     bordercolor="#666666"
     borderopacity="1.0"
     inkscape:pageopacity="0.0"
     inkscape:pageshadow="2"
     inkscape:zoom="0.7"
     inkscape:cx="255.95105"
     inkscape:cy="136.61388"
     inkscape:document-units="mm"
     inkscape:current-layer="layer1"
     showgrid="false"
     inkscape:window-width="1920"
     inkscape:window-height="1017"
     inkscape:window-x="-8"
     inkscape:window-y="-8"
     inkscape:window-maximized="1" />
  <metadata
     id="metadata5">
    <rdf:RDF>
      <cc:Work
         rdf:about="">
        <dc:format>image/svg+xml</dc:format>
        <dc:type
           rdf:resource="http://purl.org/dc/dcmitype/StillImage" />
        <dc:title></dc:title>
      </cc:Work>
    </rdf:RDF>
  </metadata>
  <g
     inkscape:label="Layer 1"
     inkscape:groupmode="layer"
     id="layer1"
     transform="translate(-159.6958,-49.057212)">
    <path
       style="fill:#000000;stroke-width:0.26458332"
       d="m 229.80762,253.14531 c -1.07866,-2.12341 -2.38814,-6.89591 -3.79315,-13.82448 -0.81395,-4.01381 -0.83389,-4.28817 -0.93744,-12.89844 l -0.1058,-8.79739 -0.8409,-0.001 c -1.52793,-0.002 -7.76808,-1.01555 -10.41221,-1.69084 -11.11294,-2.83806 -20.42705,-7.59837 -29.06299,-14.85358 -7.2137,-6.06035 -13.04328,-13.47942 -17.45615,-22.21571 -3.88198,-7.6853 -6.04004,-14.77339 -7.15917,-23.51408 -0.55197,-4.31113 -0.41713,-14.75563 0.24298,-18.81926 1.9369,-11.92371 6.38137,-22.41869 13.59788,-32.10951 3.27718,-4.40081 9.6086,-10.671498 14.08984,-13.954702 1.96615,-1.440513 3.81162,-2.763012 4.10104,-2.938885 7.15068,-4.345342 12.04697,-6.582053 18.48928,-8.446246 5.31158,-1.536992 11.50116,-2.612271 16.16819,-2.808799 l 1.58749,-0.06685 -0.0983,-13.163316 c -0.0764,-10.226245 -0.0249,-13.251803 0.23083,-13.559896 0.48084,-0.579371 3.84871,-0.561231 4.07249,0.02193 0.0883,0.230183 0.1606,6.361902 0.1606,13.626042 v 13.207527 h 1.70624 c 2.17531,0 7.20113,0.638445 10.55001,1.340197 13.72868,2.876828 26.03071,9.592934 36.03121,19.670691 11.11678,11.202667 17.84297,25.044527 20.0288,41.217387 0.51529,3.81261 0.42719,14.47772 -0.15039,18.20505 -0.94203,6.07929 -2.21501,10.92773 -4.20278,16.0073 -9.52659,24.34439 -32.01123,41.7003 -57.87767,44.67582 l -2.77813,0.31958 -0.14763,9.12 c -0.14535,8.9785 -0.16106,9.18568 -1.01259,13.3526 -0.92012,4.50256 -1.2131,5.71672 -2.13903,8.86429 -0.68955,2.34405 -1.83996,5.02707 -2.15546,5.02707 -0.12269,0 -0.44988,-0.44648 -0.7271,-0.99218 z M 224.934,194.47395 c -0.12168,-17.97914 -0.10941,-17.82673 -1.80845,-22.4501 -2.42221,-6.59125 -6.91268,-12.06122 -12.53611,-15.27061 -8.46884,-4.8333 -22.39086,-8.23603 -38.00427,-9.28874 -2.5932,-0.17484 -4.6815,-0.35131 -4.64066,-0.39214 0.0408,-0.0408 1.97312,-0.19987 4.29396,-0.35341 20.63696,-1.36524 37.15665,-6.4232 43.83821,-13.42227 3.56338,-3.73272 5.49234,-6.90383 7.12639,-11.71543 1.35684,-3.99534 1.54157,-5.83875 1.54157,-15.38362 v -8.699717 l -1.12448,0.15716 c -4.08133,0.57041 -8.90067,1.68789 -11.37473,2.637507 -0.36376,0.13962 -0.57445,-0.0886 -1.00149,-1.084837 -0.29744,-0.69391 -0.44733,-1.35162 -0.33307,-1.46159 0.28439,-0.27373 3.98339,-1.44371 6.55773,-2.07418 2.58485,-0.63306 7.31122,-1.342806 8.942,-1.342806 2.18291,0 2.03816,0.513956 2.03857,-7.238204 l 2.6e-4,-6.917004 -1.52172,0.0683 c -13.51749,0.606697 -27.21274,5.818039 -38.29879,14.573524 -2.50801,1.98076 -8.65807,8.157107 -10.7124,10.758177 -5.15139,6.52238 -9.21435,14.31783 -11.58357,22.225 -1.96401,6.55477 -2.47284,9.9609 -2.63808,17.65926 -0.14056,6.54916 0.0305,8.95097 1.01998,14.31888 1.94804,10.56838 7.17416,21.66536 14.10894,29.95842 2.42874,2.90445 8.20114,8.45836 10.86346,10.45226 9.70975,7.27196 19.98803,11.56022 31.61771,13.1914 3.84223,0.53892 3.55972,0.61973 3.65592,-1.04585 0.0462,-0.80037 0.0341,-8.83708 -0.027,-17.85938 z m -37.83633,-4.25976 c 0.46744,-0.59554 1.04388,-1.2438 1.28098,-1.44057 0.73167,-0.60724 5.72637,-6.58666 7.92339,-9.48551 2.65158,-3.49864 5.9994,-8.49511 7.68478,-11.46918 0.72102,-1.27235 1.41959,-2.31414 1.55237,-2.3151 0.56412,-0.004 2.89091,1.74438 4.18305,3.14335 1.32945,1.43937 2.56941,3.34058 2.3108,3.54311 -0.0664,0.052 -1.69666,1.03366 -3.62285,2.1815 -5.71942,3.40829 -14.16109,9.70635 -18.832,14.04995 -1.02722,0.95523 -2.19678,1.99294 -2.59904,2.30602 -0.71055,0.55302 -0.70717,0.53839 0.11852,-0.51357 z m 16.92582,-63.77069 c -1.49185,-2.66914 -4.74009,-7.5977 -6.86647,-10.4185 -4.26762,-5.66136 -5.0747,-6.63269 -9.97472,-12.00478 -0.5911,-0.64805 -0.73898,-0.92444 -0.4024,-0.75211 0.29267,0.14985 0.76892,0.53781 1.05833,0.86213 1.12134,1.25659 9.51202,8.22666 11.771,9.77807 0.50932,0.34979 0.98557,0.70286 1.05833,0.78459 0.0728,0.0817 0.84667,0.62326 1.71979,1.20338 0.87313,0.58012 1.64703,1.1246 1.71979,1.20996 0.0728,0.0854 0.70545,0.50207 1.40597,0.92604 0.70052,0.42396 1.77208,1.09209 2.38125,1.48472 0.60916,0.39263 1.79218,1.09383 2.62893,1.55822 0.83674,0.46438 1.52135,0.98848 1.52135,1.16465 0,0.39388 -1.36444,2.33844 -2.48052,3.53518 -0.83498,0.89533 -3.65989,2.95064 -4.0534,2.94913 -0.11712,-5.3e-4 -0.78637,-1.02676 -1.48723,-2.28068 z m 38.9774,86.43809 c 7.46924,-1.34907 16.713,-5.00737 23.37117,-9.24934 5.89832,-3.75787 11.49351,-8.6777 15.68131,-13.7885 0.41734,-0.50933 0.83434,-0.98558 0.92667,-1.05834 0.40407,-0.31842 3.69517,-5.09321 4.92395,-7.14375 10.52243,-17.55948 12.4941,-38.90235 5.37556,-58.18936 -2.10364,-5.69961 -6.27891,-13.03519 -10.176,-17.87834 C 271.12744,90.690508 254.16017,81.722367 235.39412,80.356886 l -2.71198,-0.197331 v 6.921656 6.921656 l 0.59531,0.159536 c 0.32742,0.08775 1.04991,0.161165 1.60552,0.163152 2.93819,0.0105 11.36494,1.788038 14.30987,3.018508 1.10327,0.46097 1.1934,0.95121 0.41084,2.23479 -0.40167,0.658837 -0.65419,0.834647 -0.9912,0.690147 -1.92096,-0.823687 -10.35148,-2.764837 -12.00786,-2.764837 -0.4575,0 -0.48288,0.44881 -0.48253,8.532817 2.6e-4,9.27505 0.17631,11.05666 1.50481,15.23964 2.68478,8.45338 8.14528,14.377 16.76961,18.19189 7.652,3.38478 19.27347,6.02088 30.67313,6.95758 1.81901,0.14946 4.37885,0.35835 5.68854,0.4642 l 2.38125,0.19244 -4.36562,0.3322 c -14.3926,1.09522 -25.50157,3.44372 -34.12709,7.21469 -9.39758,4.10849 -14.82337,10.26487 -17.75609,20.14693 -0.5694,1.91866 -0.58983,2.45244 -0.77894,20.35886 -0.10681,10.1137 -0.15355,18.45789 -0.10386,18.54266 0.0993,0.16947 4.28337,-0.30707 6.99306,-0.79648 z m 30.40706,-22.67745 c -1.33061,-1.44783 -8.54918,-7.48079 -11.19492,-9.35623 -0.30794,-0.21828 -1.45266,-1.0548 -2.54383,-1.85893 -2.32725,-1.71507 -6.22035,-4.24179 -8.93158,-5.79684 -2.19787,-1.2606 -2.19037,-1.11101 -0.18682,-3.72671 1.16971,-1.52709 4.06124,-3.83106 4.80807,-3.83106 0.2655,0 0.91431,0.83548 1.67019,2.15071 3.81401,6.63634 9.24615,13.96278 15.42344,20.80189 1.15009,1.27331 1.97988,2.31511 1.84397,2.31511 -0.1359,0 -0.53573,-0.31407 -0.88852,-0.69794 z m -19.167,-62.17569 c -1.60946,-1.06404 -3.52863,-2.98511 -4.5464,-4.55091 -0.50443,-0.77605 -0.87741,-1.44447 -0.82884,-1.48537 0.0486,-0.0409 1.10034,-0.64784 2.33726,-1.34874 6.27668,-3.55664 14.09854,-9.37277 21.14009,-15.71922 2.32389,-2.09448 3.0937,-2.31839 0.94995,-0.2763 -0.53467,0.50933 -1.7626,1.87855 -2.72872,3.04271 -0.96612,1.16417 -1.82146,2.1762 -1.90076,2.24896 -0.16269,0.14926 -2.99018,3.70543 -3.89977,4.90477 -2.88659,3.80614 -5.58463,7.85483 -7.97173,11.96242 -0.61313,1.05502 -1.20088,1.91823 -1.30612,1.91823 -0.10524,0 -0.66547,-0.31345 -1.24496,-0.69655 z m -23.39825,46.53561 c 3.01025,-9.38431 8.27598,-16.93441 14.86334,-21.31132 2.69778,-1.79252 7.40384,-4.10931 10.83734,-5.33524 l 2.4209,-0.86437 -1.43326,-0.46702 c -6.83473,-2.22705 -13.89914,-6.47108 -17.70741,-10.63794 -3.02028,-3.30467 -6.32053,-9.06174 -8.35215,-14.56979 l -1.00194,-2.7164 -0.70757,2.05494 c -2.35044,6.82627 -5.77179,12.5539 -9.8857,16.54948 -3.44778,3.34863 -9.40009,6.81123 -15.47865,9.00432 -2.24734,0.81081 -2.41349,0.91541 -1.7198,1.08265 1.25785,0.30325 6.18644,2.26886 8.17622,3.26082 5.1156,2.55028 10.18816,6.82186 13.04381,10.98414 1.90856,2.78183 4.78251,8.53755 5.74412,11.50387 0.43518,1.34241 0.81176,2.44374 0.83686,2.44739 0.0251,0.004 0.18885,-0.43983 0.36389,-0.98553 z"
       id="path4576"
       inkscape:connector-curvature="0" />
  </g>
</svg>
